<svg version="1.1" xmlns="http://www.w3.org/2000/svg" viewBox="0 0 1168.9028015136719 505.0630798339844" width="1168.9028015136719" height="505.0630798339844">
  <!-- svg-source:excalidraw -->
  
  <defs>
    <style class="style-fonts">
      @font-face {
        font-family: "Virgil";
        src: url("https://excalidraw.com/Virgil.woff2");
      }
      @font-face {
        font-family: "Cascadia";
        src: url("https://excalidraw.com/Cascadia.woff2");
      }
    </style>
    
  </defs>
  <rect x="0" y="0" width="1168.9028015136719" height="505.0630798339844" fill="#ffffff"/><g transform="translate(977.0332783110969 10) rotate(0 -0.9279062343714202 15.774398803710938)" stroke="none"><path fill="#1e1e1e" d="M 2.48,-0.41 Q 2.48,-0.41 2.68,1.74 2.88,3.90 3.06,5.41 3.25,6.91 3.51,8.14 3.77,9.38 4.04,10.91 4.32,12.45 4.43,13.71 4.54,14.97 4.62,16.11 4.69,17.24 4.74,18.75 4.79,20.25 4.62,21.94 4.45,23.64 4.41,24.97 4.36,26.30 4.13,27.55 3.90,28.81 2.22,31.03 0.54,33.25 -1.19,33.09 -2.94,32.93 -3.92,32.34 -4.90,31.76 -5.77,30.37 -6.63,28.99 -6.35,27.36 -6.06,25.72 -5.20,23.72 -4.35,21.72 -4.17,20.07 -3.99,18.41 -4.07,16.70 -4.16,14.98 -4.52,13.22 -4.88,11.46 -4.99,10.13 -5.09,8.80 -5.68,7.53 -6.27,6.27 -6.38,5.15 -6.49,4.03 -6.69,3.59 -6.90,3.14 -6.86,2.73 -6.82,2.31 -6.69,1.92 -6.55,1.52 -6.32,1.17 -6.10,0.82 -5.79,0.53 -5.49,0.25 -5.12,0.04 -4.76,-0.15 -4.36,-0.27 -3.96,-0.38 -3.54,-0.39 -3.12,-0.40 -2.71,-0.32 -2.30,-0.23 -1.93,-0.05 -1.55,0.13 -1.23,0.40 -0.91,0.66 -0.66,1.00 -0.42,1.34 -0.26,1.72 -0.10,2.11 -0.03,2.52 0.02,2.93 -0.91,1.58 -1.85,0.24 -0.84,1.11 0.16,1.99 0.80,3.62 1.44,5.25 1.92,7.52 2.40,9.79 2.81,10.94 3.21,12.09 3.48,13.14 3.75,14.19 3.95,15.60 4.14,17.01 4.20,18.76 4.26,20.52 4.32,21.77 4.39,23.02 4.17,24.09 3.96,25.16 3.93,26.29 3.90,27.42 3.68,28.47 3.45,29.51 3.41,30.42 3.37,31.34 3.28,31.73 3.20,32.13 3.02,32.50 2.85,32.86 2.59,33.17 2.33,33.49 2.00,33.73 1.68,33.97 1.30,34.13 0.93,34.28 0.53,34.34 0.13,34.41 -0.27,34.37 -0.67,34.34 -1.05,34.20 -1.44,34.07 -1.78,33.85 -2.12,33.64 -2.40,33.34 -2.68,33.05 -2.88,32.69 -3.08,32.34 -3.19,31.95 -3.30,31.56 -3.31,31.15 -3.33,30.75 -3.24,28.92 -3.15,27.09 -3.10,25.70 -3.05,24.32 -3.02,23.02 -2.99,21.71 -2.88,19.92 -2.76,18.12 -2.75,16.82 -2.74,15.52 -2.80,13.70 -2.85,11.87 -2.87,9.84 -2.90,7.81 -2.95,6.47 -2.99,5.12 -3.09,2.42 -3.19,-0.27 -2.93,-0.69 -2.66,-1.10 -2.28,-1.41 -1.90,-1.72 -1.43,-1.89 -0.97,-2.06 -0.48,-2.08 0.00,-2.09 0.48,-1.95 0.95,-1.81 1.35,-1.52 1.75,-1.23 2.04,-0.83 2.33,-0.43 2.47,0.03 2.62,0.50 2.61,0.99 2.59,1.48 2.43,1.95 2.26,2.41 1.95,2.80 1.64,3.18 1.23,3.45 0.81,3.71 0.33,3.83 -0.13,3.95 -0.63,3.91 -1.12,3.88 -1.57,3.68 -2.02,3.49 -2.39,3.16 -2.76,2.83 -3.00,2.40 -3.25,1.97 -3.34,1.49 -3.43,1.01 -3.37,0.52 -3.30,0.03 -3.09,-0.40 -2.87,-0.84 -2.52,-1.19 -2.17,-1.54 -1.73,-1.76 -1.29,-1.98 -0.80,-2.05 -0.31,-2.12 0.16,-2.03 0.65,-1.94 1.07,-1.69 1.50,-1.45 1.83,-1.09 2.16,-0.72 2.36,-0.27 2.56,0.18 2.60,0.67 2.64,1.16 2.52,1.64 2.40,2.11 2.40,2.11 2.40,2.11 2.70,3.60 2.99,5.09 2.95,6.45 2.90,7.81 2.87,9.84 2.85,11.87 2.80,13.70 2.74,15.52 2.75,16.82 2.76,18.12 2.88,19.91 2.99,21.71 3.03,23.01 3.06,24.31 3.11,25.70 3.16,27.08 3.27,29.21 3.37,31.34 3.28,31.73 3.20,32.13 3.02,32.50 2.85,32.86 2.59,33.17 2.33,33.49 2.00,33.73 1.68,33.97 1.30,34.13 0.93,34.28 0.53,34.34 0.13,34.41 -0.27,34.37 -0.67,34.34 -1.05,34.20 -1.44,34.07 -1.78,33.85 -2.12,33.64 -2.40,33.34 -2.68,33.05 -2.88,32.69 -3.08,32.34 -3.19,31.95 -3.30,31.56 -3.31,31.15 -3.33,30.75 -3.30,30.41 -3.28,30.07 -3.09,28.95 -2.90,27.82 -2.68,26.55 -2.46,25.27 -2.15,23.41 -1.85,21.55 -1.81,20.32 -1.78,19.10 -1.77,17.83 -1.77,16.56 -1.91,15.28 -2.05,14.01 -2.52,12.73 -3.00,11.46 -3.81,8.68 -4.62,5.90 -5.76,4.52 -6.90,3.14 -6.86,2.73 -6.82,2.31 -6.69,1.92 -6.55,1.52 -6.32,1.17 -6.10,0.82 -5.79,0.53 -5.49,0.25 -5.13,0.04 -4.76,-0.15 -4.36,-0.27 -3.96,-0.38 -3.54,-0.39 -3.12,-0.40 -2.71,-0.32 -2.30,-0.23 -1.93,-0.05 -1.55,0.13 -1.23,0.39 -0.91,0.66 -0.66,1.00 -0.42,1.34 -0.26,1.72 -0.10,2.11 -0.03,2.52 0.02,2.93 0.18,3.26 0.34,3.59 0.52,4.94 0.71,6.30 1.07,7.69 1.44,9.07 1.52,10.41 1.60,11.74 1.88,12.83 2.17,13.93 2.36,15.22 2.56,16.52 2.54,17.65 2.53,18.79 2.48,20.29 2.43,21.79 1.87,23.75 1.31,25.72 0.50,26.59 -0.31,27.46 -1.35,27.03 -2.39,26.60 -2.04,25.30 -1.70,24.01 -1.39,22.13 -1.08,20.25 -1.03,18.76 -0.99,17.26 -0.92,16.15 -0.86,15.03 -0.80,13.90 -0.74,12.78 -0.76,11.49 -0.77,10.21 -1.00,8.79 -1.22,7.38 -1.34,6.00 -1.46,4.63 -1.97,2.52 -2.48,0.41 -2.49,0.11 -2.50,-0.19 -2.44,-0.48 -2.38,-0.78 -2.25,-1.06 -2.13,-1.33 -1.93,-1.57 -1.74,-1.80 -1.50,-1.98 -1.26,-2.17 -0.98,-2.29 -0.70,-2.41 -0.41,-2.46 -0.11,-2.51 0.19,-2.48 0.49,-2.46 0.78,-2.37 1.06,-2.27 1.32,-2.11 1.58,-1.95 1.79,-1.73 2.00,-1.51 2.15,-1.25 2.30,-0.99 2.39,-0.70 2.48,-0.41 2.48,-0.41 L 2.48,-0.41 Z"/></g><g stroke-linecap="round" transform="translate(337.31636243997116 133.2191626291239) rotate(0 5.938318034190132 6.516094539261587)"><path d="M8.45 0.65 C9.5 0.68, 9.76 1.17, 10.19 2.31 C10.63 3.44, 11 5.88, 11.04 7.46 C11.09 9.04, 11.28 10.8, 10.47 11.8 C9.66 12.8, 7.69 13.48, 6.2 13.47 C4.71 13.46, 2.68 12.63, 1.52 11.74 C0.36 10.86, -0.59 9.43, -0.76 8.17 C-0.93 6.9, -0.13 5.35, 0.49 4.13 C1.12 2.91, 1.84 1.48, 3.01 0.85 C4.17 0.22, 6.71 0.4, 7.49 0.36 C8.27 0.32, 7.6 0.52, 7.69 0.61 M3.74 2.02 C4.49 1.31, 5.71 0.87, 7.02 0.89 C8.33 0.91, 10.92 1.12, 11.62 2.12 C12.32 3.13, 11.69 5.67, 11.21 6.95 C10.73 8.22, 9.63 8.64, 8.73 9.77 C7.83 10.91, 6.93 13.43, 5.82 13.75 C4.7 14.08, 2.8 12.82, 2.05 11.74 C1.31 10.65, 1.41 8.65, 1.37 7.23 C1.33 5.81, 1.66 4.27, 1.82 3.23 C1.97 2.2, 1.88 1.44, 2.28 1 C2.68 0.57, 4.2 0.46, 4.2 0.61" stroke="#000000" stroke-width="2" fill="none"/></g><g stroke-linecap="round"><g transform="translate(341.52277594923623 146.35158762929404) rotate(0 -0.3346192793917737 7.609395674107631)"><path d="M0.63 0.21 C0.73 2.98, 0.54 13.99, 0.41 16.37 M-0.49 -0.72 C-0.45 1.76, 0.06 12.16, 0.03 14.85" stroke="#000000" stroke-width="2" fill="none"/></g></g><mask/><g stroke-linecap="round"><g transform="translate(340.7479165711291 161.38576261643922) rotate(0 2.0760969100843596 4.236375889435806)"><path d="M1.08 1.15 C1.75 2.4, 4.24 6.67, 4.66 7.73 M0.19 0.71 C0.69 2.08, 3.59 7.61, 3.98 8.88" stroke="#000000" stroke-width="2" fill="none"/></g></g><mask/><g stroke-linecap="round"><g transform="translate(340.54137663399365 161.07416801157467) rotate(0 -3.345020129326585 3.831515120250586)"><path d="M0.51 -0.74 C-0.89 0.18, -6.14 5.22, -7.27 6.69 M-0.69 1.48 C-1.77 3.04, -3.84 6.97, -4.86 7.72" stroke="#000000" stroke-width="2" fill="none"/></g></g><mask/><g stroke-linecap="round"><g transform="translate(335.316331866343 148.35625274743515) rotate(0 2.9260029354448704 2.808503035811114)"><path d="M-0.58 -0.97 C0.38 0.16, 5.08 4.98, 6.28 6.03 M1.32 1.13 C2.11 1.96, 4.73 3.23, 5.56 4.12" stroke="#000000" stroke-width="2" fill="none"/></g></g><mask/><g stroke-linecap="round"><g transform="translate(340.7288330287309 153.5968707053974) rotate(0 4.216586072183006 -2.3780957947613928)"><path d="M0.43 0.41 C2.07 -0.27, 7.8 -3.99, 9.23 -5.05 M-0.8 -0.42 C0.79 -0.83, 7.15 -2.86, 8.7 -3.67" stroke="#000000" stroke-width="2" fill="none"/></g></g><mask/><g stroke-linecap="round"><g transform="translate(338.5921963765874 134.47910165888212) rotate(0 1.2531107242332382 -1.8436957331167747)" fill-rule="evenodd"><path d="M1.92 1.58 L5.78 -3.38 L10.1 2.41 L-8.56 -0.84 L-0.66 -0.37" stroke="none" stroke-width="0" fill="#4c6ef5" fill-rule="evenodd"/><path d="M0.8 -0.29 C1.72 -1.45, 4.39 -6.36, 6 -6.5 C7.6 -6.65, 9.77 -2.39, 10.42 -1.17 C11.08 0.05, 10 0.42, 9.92 0.8 C9.84 1.18, 12.88 1.24, 9.95 1.09 C7.02 0.95, -4.64 0.39, -7.66 -0.05 C-10.68 -0.49, -9.41 -1.57, -8.16 -1.54 C-6.91 -1.52, -1.51 0.01, -0.15 0.08 M-0.24 -1.49 C0.54 -2.58, 3.7 -5.77, 5.34 -5.59 C6.98 -5.42, 8.79 -1.7, 9.59 -0.46 C10.39 0.79, 10.3 1.58, 10.16 1.86 C10.01 2.14, 12.04 1.16, 8.72 1.21 C5.41 1.26, -7.03 2.35, -9.75 2.17 C-12.47 1.99, -8.98 0.53, -7.58 0.14 C-6.18 -0.25, -2.93 -0.25, -1.36 -0.17" stroke="#000000" stroke-width="1" fill="none"/></g></g><mask/><g stroke-linecap="round"><g transform="translate(344.23690728034774 129.79930094594238) rotate(0 0.9072849285487194 -2.750890298041142)"><path d="M0 0 C-0.02 -0.45, 0.47 -2.27, -0.14 -2.72 C-0.74 -3.18, -2.73 -2.27, -3.62 -2.73 C-4.51 -3.19, -6.69 -5.75, -5.47 -5.5 C-4.25 -5.26, 1.6 -1.63, 3.73 -1.25 C5.85 -0.87, 7.85 -2.99, 7.28 -3.2 C6.72 -3.4, 1.52 -2.6, 0.37 -2.47 M0 0 C-0.02 -0.45, 0.47 -2.27, -0.14 -2.72 C-0.74 -3.18, -2.73 -2.27, -3.62 -2.73 C-4.51 -3.19, -6.69 -5.75, -5.47 -5.5 C-4.25 -5.26, 1.6 -1.63, 3.73 -1.25 C5.85 -0.87, 7.85 -2.99, 7.28 -3.2 C6.72 -3.4, 1.52 -2.6, 0.37 -2.47" stroke="#000000" stroke-width="1" fill="none"/></g></g><mask/><g transform="translate(201.92196655273438 129.62261962890625) rotate(0 -1.314544677734375 -1.314544677734375)" stroke="none"><path fill="#1e1e1e" d="M -1.61,1.61 Q -1.61,1.61 -2.40,0.89 -3.19,0.17 -3.42,-0.13 -3.64,-0.45 -3.76,-0.82 -3.87,-1.18 -3.86,-1.57 -3.85,-1.96 -3.72,-2.32 -3.58,-2.68 -3.34,-2.98 -3.10,-3.28 -2.77,-3.49 -2.45,-3.70 -2.07,-3.79 -1.70,-3.88 -1.32,-3.85 -0.93,-3.82 -0.58,-3.67 -0.22,-3.52 0.06,-3.26 0.34,-3.00 0.53,-2.66 0.72,-2.33 0.79,-1.95 0.87,-1.57 0.82,-1.19 0.76,-0.81 0.59,-0.46 0.42,-0.11 0.15,0.15 -0.12,0.42 -0.46,0.59 -0.81,0.76 -1.19,0.82 -1.57,0.87 -1.95,0.79 -2.33,0.72 -2.67,0.53 -3.00,0.34 -3.26,0.05 -3.52,-0.22 -3.67,-0.58 -3.82,-0.93 -3.85,-1.32 -3.88,-1.70 -3.79,-2.08 -3.70,-2.45 -3.49,-2.77 -3.28,-3.10 -2.98,-3.34 -2.68,-3.58 -2.32,-3.72 -1.96,-3.85 -1.57,-3.86 -1.18,-3.87 -0.82,-3.76 -0.45,-3.64 -0.13,-3.42 0.17,-3.19 0.17,-3.19 0.17,-3.19 0.89,-2.40 1.61,-1.61 1.78,-1.39 1.95,-1.17 2.06,-0.92 2.17,-0.67 2.22,-0.40 2.27,-0.13 2.25,0.13 2.24,0.41 2.15,0.67 2.07,0.93 1.93,1.17 1.79,1.40 1.59,1.59 1.40,1.79 1.17,1.93 0.93,2.07 0.67,2.15 0.41,2.24 0.13,2.25 -0.13,2.27 -0.40,2.22 -0.67,2.17 -0.92,2.06 -1.17,1.94 -1.39,1.78 -1.61,1.61 -1.61,1.61 L -1.61,1.61 Z"/></g><g transform="translate(10 485.8613586425781) rotate(0 574.4514007568359 -216.89813232421875)" stroke="none"><path fill="#1e1e1e" d="M -1.17,-1.02 Q -1.17,-1.02 1.49,-4.02 4.16,-7.03 8.75,-11.37 13.34,-15.71 19.80,-22.05 26.27,-28.39 33.52,-36.72 40.77,-45.05 48.78,-54.64 56.78,-64.23 73.85,-80.08 90.93,-95.94 108.35,-112.84 125.78,-129.75 137.74,-140.73 149.70,-151.71 158.95,-159.78 168.19,-167.85 175.53,-173.93 182.87,-180.02 192.78,-188.63 202.68,-197.25 209.95,-202.83 217.22,-208.41 222.58,-212.29 227.94,-216.18 232.46,-219.70 236.98,-223.22 240.83,-225.88 244.68,-228.54 246.60,-230.35 248.53,-232.17 250.18,-233.42 251.83,-234.67 254.02,-236.29 256.22,-237.92 258.39,-239.04 260.55,-240.17 262.72,-240.69 264.88,-241.21 266.08,-241.51 267.28,-241.80 268.37,-242.19 269.46,-242.58 268.68,-242.42 267.89,-242.25 268.08,-242.38 268.27,-242.51 268.48,-242.59 268.70,-242.67 268.93,-242.70 269.15,-242.73 269.38,-242.70 269.61,-242.67 269.82,-242.59 270.04,-242.51 270.23,-242.37 270.41,-242.24 270.57,-242.07 270.72,-241.90 270.82,-241.70 270.93,-241.49 270.98,-241.27 271.04,-241.05 271.03,-240.82 271.03,-240.59 270.98,-240.36 270.92,-240.14 270.81,-239.94 270.71,-239.74 270.55,-239.57 270.40,-239.39 269.86,-241.78 269.33,-244.16 270.43,-245.95 271.54,-247.74 275.11,-253.12 278.69,-258.50 282.87,-264.55 287.05,-270.60 290.72,-276.16 294.38,-281.73 296.71,-285.23 299.04,-288.73 300.82,-291.02 302.60,-293.30 304.45,-296.10 306.30,-298.89 307.48,-300.52 308.65,-302.16 309.43,-303.58 310.21,-304.99 311.37,-306.47 312.54,-307.95 313.36,-309.01 314.18,-310.06 315.11,-310.73 316.04,-311.40 317.11,-312.02 318.17,-312.64 320.20,-313.54 322.23,-314.43 323.54,-314.97 324.85,-315.50 326.72,-315.94 328.59,-316.39 330.52,-316.37 332.45,-316.35 334.00,-316.37 335.55,-316.39 337.56,-315.95 339.57,-315.51 342.32,-314.45 345.07,-313.39 347.51,-311.69 349.94,-309.99 351.68,-308.49 353.43,-306.99 354.68,-305.55 355.93,-304.11 357.90,-301.18 359.88,-298.26 361.45,-295.89 363.02,-293.52 365.19,-290.23 367.36,-286.95 368.69,-284.35 370.02,-281.74 370.97,-279.48 371.91,-277.22 373.77,-274.10 375.62,-270.97 377.15,-268.91 378.67,-266.84 379.77,-265.16 380.87,-263.48 382.41,-261.29 383.95,-259.10 385.34,-257.44 386.72,-255.78 388.47,-253.52 390.22,-251.26 391.69,-249.58 393.15,-247.90 394.58,-246.00 396.00,-244.10 397.72,-241.80 399.44,-239.50 401.31,-237.00 403.17,-234.51 404.37,-233.13 405.57,-231.75 406.26,-230.69 406.95,-229.63 408.00,-228.08 409.06,-226.54 410.50,-225.26 411.94,-223.99 412.79,-222.65 413.63,-221.31 414.96,-220.08 416.28,-218.86 416.87,-217.21 417.46,-215.56 417.74,-214.52 418.02,-213.48 418.83,-212.03 419.64,-210.57 420.07,-209.51 420.50,-208.44 421.25,-206.51 422.00,-204.57 422.65,-202.51 423.29,-200.45 423.48,-198.77 423.66,-197.09 424.19,-195.45 424.71,-193.81 425.59,-192.38 426.46,-190.95 426.83,-189.34 427.19,-187.72 427.14,-185.47 427.09,-183.22 427.33,-180.98 427.56,-178.74 427.98,-176.24 428.40,-173.74 428.56,-170.24 428.72,-166.75 428.37,-163.30 428.02,-159.86 427.92,-158.10 427.83,-156.34 428.19,-155.07 428.56,-153.80 428.72,-151.89 428.88,-149.98 428.53,-147.88 428.18,-145.77 428.10,-144.28 428.02,-142.79 428.02,-141.41 428.02,-140.04 427.99,-137.16 427.97,-134.29 428.03,-133.09 428.09,-131.89 428.06,-131.63 428.02,-131.37 427.93,-131.13 427.84,-130.88 427.69,-130.66 427.53,-130.45 427.34,-130.28 427.14,-130.10 426.91,-129.98 426.67,-129.86 426.42,-129.80 426.16,-129.74 425.90,-129.74 425.64,-129.74 425.38,-129.81 425.13,-129.87 424.89,-129.99 424.66,-130.12 424.47,-130.29 424.27,-130.47 424.12,-130.68 423.97,-130.90 423.88,-131.15 423.79,-131.39 423.76,-131.66 423.73,-131.92 424.87,-133.38 426.01,-134.84 427.41,-136.40 428.80,-137.95 430.22,-139.75 431.63,-141.54 434.59,-144.65 437.56,-147.76 439.53,-150.12 441.49,-152.49 442.21,-153.84 442.93,-155.20 443.64,-156.31 444.35,-157.42 445.43,-158.48 446.51,-159.54 447.71,-159.78 448.90,-160.02 450.73,-159.19 452.57,-158.35 453.57,-157.44 454.56,-156.53 455.63,-154.96 456.70,-153.39 457.47,-152.49 458.23,-151.60 460.02,-148.74 461.81,-145.88 462.94,-143.43 464.08,-140.98 465.22,-138.89 466.36,-136.79 467.94,-134.40 469.51,-132.01 470.59,-130.18 471.67,-128.34 472.85,-126.44 474.02,-124.55 474.69,-123.30 475.36,-122.06 476.41,-120.43 477.45,-118.79 478.28,-117.44 479.11,-116.08 480.01,-115.21 480.92,-114.35 481.41,-113.35 481.91,-112.36 483.39,-110.34 484.88,-108.31 485.59,-106.98 486.31,-105.65 487.26,-103.05 488.21,-100.44 488.94,-98.19 489.67,-95.93 490.36,-94.79 491.06,-93.64 492.37,-91.60 493.67,-89.57 494.67,-87.87 495.68,-86.18 497.50,-83.63 499.33,-81.08 501.16,-79.29 502.98,-77.50 504.60,-75.49 506.23,-73.47 509.08,-70.82 511.93,-68.17 514.31,-65.86 516.69,-63.55 518.79,-61.85 520.88,-60.15 523.37,-57.45 525.86,-54.75 528.39,-52.13 530.91,-49.51 532.78,-47.22 534.65,-44.92 535.85,-43.17 537.06,-41.41 538.33,-39.12 539.60,-36.83 541.23,-34.41 542.86,-31.99 543.96,-30.17 545.05,-28.35 546.87,-27.00 548.68,-25.65 550.31,-24.22 551.93,-22.79 553.35,-21.93 554.76,-21.06 558.31,-19.16 561.86,-17.26 564.84,-16.08 567.81,-14.90 570.65,-13.61 573.49,-12.32 576.66,-10.21 579.84,-8.10 582.22,-6.89 584.59,-5.67 587.06,-4.79 589.53,-3.91 591.74,-3.15 593.95,-2.38 597.57,-0.91 601.20,0.56 603.24,2.01 605.27,3.46 607.18,4.78 609.08,6.11 610.28,5.47 611.49,4.83 613.34,3.14 615.20,1.45 617.50,-1.11 619.80,-3.67 622.31,-6.65 624.81,-9.63 626.99,-12.74 629.16,-15.84 631.55,-21.59 633.94,-27.33 636.14,-32.12 638.33,-36.90 641.92,-43.86 645.51,-50.83 648.18,-55.68 650.85,-60.53 653.13,-64.13 655.42,-67.73 656.70,-71.03 657.99,-74.32 659.68,-79.14 661.38,-83.97 662.48,-87.52 663.57,-91.06 664.42,-93.72 665.27,-96.38 666.79,-99.84 668.31,-103.30 670.08,-107.03 671.86,-110.76 672.98,-113.44 674.10,-116.12 675.75,-118.87 677.41,-121.62 678.86,-123.90 680.31,-126.18 681.72,-127.95 683.13,-129.73 685.23,-132.35 687.32,-134.97 689.04,-136.54 690.75,-138.10 691.69,-139.45 692.63,-140.81 693.36,-142.13 694.08,-143.46 694.74,-145.07 695.40,-146.67 696.56,-148.60 697.71,-150.53 700.96,-153.72 704.21,-156.92 706.30,-158.95 708.39,-160.99 710.04,-162.60 711.69,-164.22 713.13,-165.67 714.58,-167.12 717.56,-169.30 720.53,-171.49 723.23,-173.86 725.92,-176.23 727.90,-177.67 729.87,-179.10 731.11,-179.87 732.36,-180.63 733.79,-181.05 735.23,-181.46 736.60,-181.66 737.97,-181.85 739.51,-182.59 741.06,-183.33 743.44,-183.54 745.82,-183.74 747.51,-183.35 749.21,-182.95 751.13,-181.86 753.05,-180.77 754.66,-179.48 756.27,-178.19 757.46,-176.78 758.65,-175.38 759.46,-174.55 760.28,-173.72 762.07,-171.33 763.86,-168.94 765.02,-167.09 766.17,-165.25 767.07,-162.81 767.96,-160.38 769.49,-158.46 771.01,-156.54 771.47,-155.51 771.92,-154.49 772.93,-153.45 773.94,-152.41 775.01,-150.89 776.08,-149.38 777.63,-148.49 779.18,-147.61 780.39,-147.01 781.60,-146.42 782.83,-145.46 784.07,-144.50 785.90,-144.81 787.74,-145.11 789.07,-144.58 790.41,-144.05 791.71,-143.98 793.01,-143.92 794.44,-145.13 795.86,-146.34 799.99,-153.57 804.11,-160.80 807.88,-168.08 811.64,-175.36 815.55,-183.71 819.46,-192.07 825.68,-206.93 831.90,-221.79 836.47,-231.91 841.04,-242.03 847.91,-256.16 854.79,-270.29 860.76,-281.60 866.72,-292.90 871.52,-302.59 876.32,-312.27 882.90,-325.47 889.49,-338.66 893.02,-347.98 896.55,-357.30 899.57,-365.81 902.59,-374.32 904.25,-379.43 905.92,-384.55 907.41,-387.93 908.90,-391.31 911.04,-395.76 913.19,-400.21 914.85,-403.61 916.52,-407.01 918.39,-410.02 920.27,-413.03 921.78,-416.12 923.29,-419.21 924.78,-421.05 926.27,-422.89 926.69,-423.95 927.11,-425.02 928.15,-426.42 929.20,-427.81 930.48,-428.90 931.76,-429.99 932.54,-430.77 933.33,-431.56 935.21,-433.13 937.10,-434.70 938.35,-435.43 939.61,-436.15 942.05,-437.43 944.49,-438.72 945.83,-439.66 947.16,-440.59 948.05,-441.40 948.94,-442.20 951.20,-443.00 953.45,-443.79 955.60,-444.10 957.74,-444.40 958.99,-444.61 960.23,-444.82 961.95,-444.89 963.67,-444.96 965.15,-445.03 966.62,-445.09 968.39,-445.08 970.15,-445.07 972.92,-444.58 975.69,-444.10 978.02,-443.47 980.34,-442.84 982.46,-442.17 984.58,-441.49 986.42,-440.40 988.26,-439.30 991.22,-437.31 994.19,-435.32 997.31,-433.35 1000.43,-431.37 1004.11,-428.19 1007.79,-425.00 1010.12,-422.48 1012.46,-419.97 1014.98,-416.59 1017.50,-413.22 1019.32,-410.66 1021.13,-408.10 1022.30,-406.23 1023.46,-404.36 1026.54,-400.62 1029.62,-396.88 1032.48,-392.97 1035.35,-389.05 1036.97,-386.20 1038.60,-383.35 1041.14,-379.56 1043.67,-375.77 1045.55,-372.20 1047.43,-368.62 1049.34,-365.25 1051.25,-361.89 1053.19,-358.57 1055.14,-355.25 1057.48,-351.18 1059.82,-347.12 1061.54,-344.69 1063.26,-342.26 1065.17,-338.88 1067.08,-335.50 1068.62,-332.97 1070.16,-330.45 1071.54,-328.67 1072.92,-326.89 1074.66,-324.59 1076.40,-322.29 1077.28,-320.90 1078.16,-319.52 1078.89,-316.89 1079.62,-314.26 1081.03,-308.27 1082.44,-302.28 1083.42,-297.45 1084.39,-292.63 1087.06,-283.07 1089.72,-273.52 1091.24,-267.53 1092.75,-261.54 1094.14,-256.76 1095.53,-251.98 1097.26,-245.38 1098.99,-238.79 1100.48,-233.74 1101.96,-228.70 1103.73,-222.38 1105.50,-216.06 1106.99,-211.91 1108.48,-207.76 1109.50,-204.84 1110.52,-201.92 1111.70,-198.81 1112.88,-195.70 1113.47,-193.96 1114.06,-192.22 1114.38,-190.67 1114.71,-189.11 1115.48,-187.57 1116.26,-186.03 1117.03,-184.56 1117.81,-183.08 1118.82,-181.84 1119.82,-180.60 1121.44,-177.19 1123.06,-173.77 1124.09,-171.21 1125.11,-168.64 1125.92,-167.79 1126.73,-166.95 1127.45,-166.00 1128.17,-165.05 1128.24,-164.82 1128.31,-164.59 1128.32,-164.35 1128.32,-164.11 1128.28,-163.87 1128.23,-163.64 1128.12,-163.42 1128.02,-163.20 1127.86,-163.01 1127.71,-162.83 1127.52,-162.68 1127.32,-162.54 1127.10,-162.45 1126.88,-162.35 1126.64,-162.31 1126.40,-162.28 1126.16,-162.30 1125.92,-162.32 1125.69,-162.39 1125.47,-162.47 1125.26,-162.60 1125.06,-162.73 1124.89,-162.90 1124.73,-163.08 1124.61,-163.29 1124.49,-163.50 1124.11,-165.20 1123.73,-166.90 1122.61,-169.66 1121.49,-172.42 1117.99,-180.48 1114.50,-188.55 1111.89,-195.03 1109.28,-201.51 1107.42,-206.55 1105.57,-211.59 1104.01,-217.97 1102.46,-224.34 1101.80,-229.36 1101.15,-234.38 1100.50,-241.42 1099.85,-248.46 1099.21,-253.31 1098.56,-258.15 1097.55,-262.42 1096.53,-266.69 1094.63,-270.67 1092.73,-274.65 1091.51,-277.56 1090.30,-280.47 1089.39,-283.26 1088.48,-286.05 1087.69,-287.47 1086.90,-288.90 1086.43,-290.44 1085.96,-291.99 1085.43,-293.67 1084.91,-295.34 1084.62,-296.44 1084.34,-297.53 1083.29,-296.59 1082.25,-295.65 1081.65,-294.13 1081.05,-292.61 1081.08,-289.16 1081.11,-285.71 1081.79,-282.37 1082.47,-279.02 1083.50,-273.72 1084.53,-268.41 1085.32,-264.66 1086.11,-260.91 1086.80,-257.81 1087.50,-254.70 1088.53,-251.54 1089.55,-248.39 1090.35,-246.30 1091.15,-244.21 1092.24,-241.42 1093.34,-238.63 1094.50,-236.79 1095.66,-234.96 1096.63,-233.38 1097.59,-231.80 1098.72,-229.58 1099.85,-227.36 1101.03,-225.76 1102.20,-224.16 1103.17,-222.21 1104.14,-220.25 1105.27,-217.95 1106.39,-215.65 1107.60,-213.58 1108.81,-211.51 1109.76,-210.34 1110.71,-209.17 1111.52,-208.36 1112.33,-207.55 1114.43,-205.40 1116.54,-203.24 1117.90,-201.84 1119.25,-200.43 1120.05,-198.88 1120.84,-197.33 1122.35,-195.86 1123.85,-194.38 1125.02,-193.31 1126.19,-192.24 1127.43,-191.02 1128.68,-189.81 1129.64,-188.96 1130.59,-188.11 1131.74,-186.98 1132.90,-185.86 1134.37,-184.65 1135.84,-183.44 1136.98,-182.54 1138.12,-181.65 1139.03,-180.92 1139.93,-180.18 1141.44,-178.88 1142.95,-177.58 1144.25,-176.96 1145.55,-176.34 1146.84,-174.77 1148.13,-173.21 1148.61,-173.16 1149.09,-173.10 1149.43,-172.99 1149.76,-172.88 1150.07,-172.70 1150.37,-172.51 1150.62,-172.25 1150.87,-172.00 1151.05,-171.69 1151.23,-171.39 1151.34,-171.05 1151.44,-170.71 1151.46,-170.35 1151.48,-169.99 1151.41,-169.64 1151.34,-169.29 1151.19,-168.97 1151.04,-168.65 1150.82,-168.37 1150.60,-168.09 1150.32,-167.87 1150.03,-167.66 1149.71,-167.51 1149.38,-167.37 1149.03,-167.31 1148.68,-167.25 1148.32,-167.27 1147.97,-167.30 1146.51,-168.06 1145.06,-168.83 1143.10,-170.45 1141.13,-172.07 1138.78,-174.37 1136.43,-176.67 1133.18,-180.36 1129.93,-184.05 1126.28,-189.08 1122.63,-194.12 1119.96,-198.57 1117.28,-203.02 1115.02,-207.19 1112.77,-211.36 1111.04,-215.47 1109.32,-219.57 1107.09,-225.07 1104.87,-230.58 1103.18,-234.41 1101.50,-238.24 1099.66,-242.13 1097.82,-246.02 1096.63,-249.25 1095.45,-252.49 1094.58,-254.98 1093.71,-257.47 1092.93,-262.04 1092.16,-266.61 1091.84,-270.06 1091.52,-273.52 1090.64,-277.92 1089.76,-282.32 1089.01,-285.33 1088.26,-288.33 1087.57,-291.13 1086.87,-293.93 1086.15,-295.37 1085.44,-296.80 1084.73,-297.69 1084.03,-298.57 1083.08,-299.29 1082.14,-300.01 1081.16,-300.54 1080.17,-301.08 1078.81,-301.63 1077.45,-302.19 1076.75,-302.35 1076.05,-302.52 1075.81,-302.73 1075.58,-302.94 1075.40,-303.21 1075.22,-303.47 1075.11,-303.77 1075.00,-304.07 1074.96,-304.38 1074.93,-304.70 1074.97,-305.02 1075.01,-305.33 1075.12,-305.63 1075.24,-305.93 1075.42,-306.19 1075.60,-306.45 1075.84,-306.66 1076.08,-306.86 1076.37,-307.01 1076.65,-307.16 1076.96,-307.23 1077.27,-307.30 1077.59,-307.30 1077.91,-307.30 1078.21,-307.22 1078.52,-307.14 1078.80,-306.99 1079.08,-306.84 1079.29,-304.11 1079.49,-301.38 1079.61,-299.61 1079.73,-297.85 1080.08,-295.51 1080.44,-293.16 1081.26,-291.17 1082.08,-289.17 1083.93,-285.23 1085.77,-281.29 1087.68,-277.33 1089.58,-273.37 1092.27,-267.90 1094.96,-262.43 1097.60,-257.08 1100.24,-251.73 1102.10,-248.34 1103.96,-244.96 1105.51,-241.98 1107.07,-239.00 1109.19,-235.92 1111.32,-232.84 1112.65,-230.30 1113.98,-227.76 1115.23,-226.49 1116.47,-225.22 1117.87,-222.57 1119.27,-219.93 1120.50,-218.65 1121.74,-217.37 1122.80,-215.97 1123.86,-214.56 1125.00,-212.83 1126.13,-211.09 1127.07,-209.59 1128.01,-208.09 1128.83,-206.71 1129.64,-205.33 1130.64,-204.14 1131.65,-202.94 1132.75,-202.17 1133.86,-201.39 1134.64,-200.44 1135.43,-199.48 1136.12,-198.35 1136.80,-197.22 1137.70,-196.18 1138.60,-195.13 1139.42,-194.29 1140.24,-193.45 1140.82,-192.43 1141.40,-191.41 1141.94,-190.38 1142.48,-189.35 1143.53,-187.34 1144.59,-185.33 1144.66,-184.92 1144.73,-184.52 1144.67,-184.11 1144.60,-183.70 1144.41,-183.33 1144.22,-182.96 1143.92,-182.67 1143.62,-182.38 1143.25,-182.20 1142.88,-182.03 1142.46,-181.98 1142.05,-181.93 1141.65,-182.01 1141.24,-182.10 1140.88,-182.31 1140.52,-182.52 1140.25,-182.83 1139.98,-183.15 1139.82,-183.53 1139.67,-183.91 1139.64,-184.33 1139.61,-184.74 1139.72,-185.14 1139.83,-185.54 1140.06,-185.89 1140.29,-186.24 1140.61,-186.49 1140.94,-186.74 1141.33,-186.88 1141.73,-187.02 1142.14,-187.02 1142.55,-187.03 1142.95,-186.90 1143.34,-186.77 1143.68,-186.52 1144.01,-186.27 1144.25,-185.93 1144.48,-185.59 1144.60,-185.19 1144.71,-184.79 1144.69,-184.38 1144.67,-183.96 1144.52,-183.58 1144.37,-183.19 1144.11,-182.87 1143.84,-182.55 1143.49,-182.33 1143.14,-182.12 1142.73,-182.02 1142.33,-181.93 1141.92,-181.97 1141.50,-182.01 1141.12,-182.18 1140.75,-182.35 1140.44,-182.64 1140.14,-182.92 1139.94,-183.28 1139.74,-183.65 1139.74,-183.65 1139.74,-183.65 1138.87,-185.40 1138.00,-187.16 1137.38,-188.78 1136.77,-190.41 1135.97,-191.36 1135.18,-192.30 1134.06,-193.69 1132.94,-195.09 1132.19,-196.74 1131.43,-198.40 1130.12,-199.52 1128.80,-200.64 1127.65,-202.14 1126.51,-203.63 1125.83,-205.03 1125.15,-206.42 1124.35,-207.89 1123.56,-209.36 1122.39,-211.06 1121.22,-212.75 1120.40,-214.08 1119.59,-215.41 1118.20,-217.01 1116.81,-218.61 1115.58,-220.96 1114.36,-223.31 1112.98,-224.89 1111.61,-226.48 1110.34,-228.88 1109.07,-231.29 1106.84,-234.50 1104.62,-237.71 1103.05,-240.65 1101.49,-243.59 1099.57,-247.01 1097.65,-250.43 1094.96,-255.76 1092.27,-261.09 1089.52,-266.54 1086.77,-271.98 1084.77,-275.90 1082.78,-279.83 1080.78,-283.77 1078.79,-287.71 1077.68,-290.03 1076.57,-292.36 1075.95,-294.83 1075.33,-297.31 1075.69,-299.92 1076.05,-302.52 1075.81,-302.73 1075.58,-302.94 1075.40,-303.21 1075.22,-303.47 1075.11,-303.77 1075.00,-304.07 1074.96,-304.38 1074.93,-304.70 1074.97,-305.02 1075.01,-305.33 1075.12,-305.63 1075.24,-305.92 1075.42,-306.19 1075.60,-306.45 1075.84,-306.66 1076.08,-306.86 1076.37,-307.01 1076.65,-307.16 1076.96,-307.23 1077.27,-307.30 1077.59,-307.30 1077.91,-307.30 1078.21,-307.22 1078.52,-307.14 1078.80,-306.99 1079.08,-306.84 1079.69,-306.62 1080.30,-306.40 1081.54,-305.66 1082.77,-304.93 1083.91,-304.23 1085.04,-303.53 1085.98,-301.96 1086.91,-300.38 1087.54,-299.18 1088.16,-297.98 1088.79,-296.28 1089.43,-294.58 1090.13,-291.77 1090.83,-288.97 1091.60,-285.91 1092.36,-282.84 1093.27,-278.31 1094.17,-273.77 1094.49,-270.41 1094.80,-267.05 1095.53,-262.71 1096.25,-258.37 1097.13,-255.90 1098.01,-253.43 1099.16,-250.32 1100.32,-247.21 1102.20,-243.30 1104.08,-239.39 1105.81,-235.53 1107.55,-231.68 1109.81,-226.21 1112.07,-220.75 1113.79,-216.81 1115.51,-212.88 1117.81,-208.82 1120.10,-204.76 1122.80,-200.50 1125.50,-196.25 1129.16,-191.48 1132.81,-186.70 1136.09,-183.32 1139.36,-179.93 1141.69,-178.04 1144.02,-176.14 1146.55,-174.62 1149.09,-173.10 1149.43,-172.99 1149.76,-172.88 1150.07,-172.70 1150.37,-172.51 1150.62,-172.25 1150.87,-172.00 1151.05,-171.69 1151.23,-171.39 1151.34,-171.05 1151.44,-170.71 1151.46,-170.35 1151.48,-169.99 1151.41,-169.64 1151.34,-169.30 1151.19,-168.97 1151.04,-168.65 1150.82,-168.37 1150.60,-168.09 1150.32,-167.87 1150.03,-167.66 1149.71,-167.51 1149.38,-167.37 1149.03,-167.31 1148.68,-167.25 1148.32,-167.27 1147.97,-167.30 1146.76,-168.03 1145.54,-168.77 1144.49,-169.96 1143.44,-171.15 1142.54,-172.05 1141.64,-172.95 1140.66,-173.51 1139.67,-174.07 1138.34,-175.53 1137.00,-176.99 1136.25,-177.78 1135.49,-178.56 1134.50,-179.48 1133.51,-180.40 1131.75,-181.67 1129.98,-182.94 1128.86,-184.08 1127.73,-185.23 1126.88,-186.18 1126.03,-187.13 1124.81,-188.36 1123.59,-189.59 1122.50,-190.73 1121.42,-191.86 1119.41,-193.79 1117.40,-195.72 1117.03,-196.86 1116.67,-197.99 1115.30,-199.34 1113.93,-200.68 1112.42,-202.12 1110.92,-203.56 1110.26,-204.43 1109.60,-205.29 1108.88,-206.32 1108.17,-207.36 1107.31,-208.74 1106.45,-210.12 1105.17,-212.26 1103.90,-214.41 1102.74,-216.71 1101.59,-219.00 1100.75,-220.74 1099.91,-222.49 1098.61,-224.26 1097.30,-226.03 1096.16,-228.18 1095.01,-230.33 1094.18,-231.91 1093.34,-233.49 1092.05,-235.54 1090.76,-237.59 1089.63,-240.38 1088.51,-243.17 1087.64,-245.32 1086.78,-247.47 1085.66,-250.73 1084.55,-254.00 1083.78,-257.11 1083.00,-260.21 1082.10,-263.97 1081.21,-267.72 1080.05,-272.97 1078.89,-278.21 1077.97,-281.90 1077.05,-285.59 1076.89,-289.80 1076.72,-294.00 1077.42,-296.28 1078.13,-298.55 1079.19,-299.77 1080.26,-300.99 1081.54,-301.42 1082.83,-301.85 1084.70,-301.18 1086.57,-300.52 1087.24,-299.56 1087.91,-298.59 1088.06,-297.46 1088.21,-296.32 1088.72,-294.53 1089.22,-292.74 1089.40,-291.46 1089.57,-290.19 1090.29,-288.53 1091.01,-286.88 1091.88,-284.19 1092.76,-281.51 1093.96,-278.65 1095.16,-275.80 1097.16,-271.57 1099.16,-267.33 1100.22,-262.92 1101.27,-258.52 1101.95,-253.62 1102.62,-248.72 1103.29,-241.74 1103.96,-234.76 1104.62,-229.90 1105.29,-225.04 1106.85,-218.85 1108.40,-212.65 1110.31,-207.69 1112.22,-202.72 1114.90,-196.32 1117.59,-189.92 1121.22,-181.90 1124.84,-173.88 1126.26,-170.81 1127.67,-167.74 1127.92,-166.39 1128.17,-165.05 1128.24,-164.82 1128.31,-164.59 1128.32,-164.35 1128.32,-164.11 1128.28,-163.87 1128.23,-163.64 1128.12,-163.42 1128.02,-163.20 1127.86,-163.01 1127.71,-162.83 1127.52,-162.68 1127.32,-162.54 1127.10,-162.45 1126.88,-162.35 1126.64,-162.31 1126.40,-162.28 1126.16,-162.30 1125.92,-162.32 1125.69,-162.39 1125.47,-162.47 1125.26,-162.60 1125.06,-162.73 1124.89,-162.90 1124.73,-163.08 1124.61,-163.29 1124.49,-163.50 1125.17,-163.04 1125.86,-162.58 1124.89,-163.70 1123.93,-164.83 1123.09,-166.12 1122.24,-167.41 1121.16,-169.86 1120.09,-172.31 1118.53,-175.38 1116.98,-178.44 1115.84,-179.99 1114.70,-181.54 1114.01,-183.08 1113.31,-184.61 1112.39,-186.60 1111.47,-188.59 1111.36,-190.00 1111.26,-191.40 1110.84,-193.08 1110.42,-194.76 1109.22,-197.91 1108.03,-201.05 1107.01,-203.96 1105.99,-206.87 1104.47,-211.11 1102.94,-215.35 1101.18,-221.65 1099.41,-227.95 1097.91,-233.03 1096.41,-238.11 1094.68,-244.67 1092.95,-251.22 1091.54,-256.05 1090.13,-260.88 1088.60,-266.83 1087.08,-272.78 1084.37,-282.42 1081.67,-292.07 1080.67,-296.84 1079.68,-301.62 1078.24,-307.54 1076.80,-313.47 1076.14,-315.77 1075.48,-318.08 1074.89,-319.39 1074.30,-320.71 1072.57,-323.00 1070.83,-325.29 1069.38,-327.18 1067.92,-329.08 1066.36,-331.64 1064.79,-334.21 1062.95,-337.47 1061.11,-340.74 1059.32,-343.27 1057.54,-345.80 1055.20,-349.86 1052.86,-353.92 1050.91,-357.25 1048.95,-360.59 1047.03,-363.99 1045.10,-367.39 1043.29,-370.85 1041.47,-374.30 1038.88,-378.17 1036.29,-382.04 1034.75,-384.76 1033.20,-387.48 1030.38,-391.33 1027.55,-395.18 1024.37,-399.05 1021.18,-402.93 1020.05,-404.72 1018.92,-406.52 1017.11,-409.04 1015.30,-411.57 1012.85,-414.81 1010.41,-418.06 1008.16,-420.44 1005.92,-422.83 1002.39,-425.84 998.86,-428.86 995.68,-430.80 992.50,-432.74 989.53,-434.64 986.55,-436.53 985.10,-437.47 983.65,-438.40 981.59,-438.94 979.53,-439.47 977.35,-439.92 975.16,-440.37 972.67,-440.63 970.17,-440.89 968.43,-440.86 966.69,-440.83 965.25,-440.84 963.81,-440.86 962.24,-440.82 960.66,-440.78 959.49,-440.73 958.32,-440.69 956.57,-440.38 954.81,-440.08 953.21,-439.44 951.62,-438.81 950.56,-438.02 949.51,-437.24 948.04,-436.21 946.57,-435.19 944.20,-433.64 941.83,-432.10 940.67,-431.49 939.50,-430.88 938.56,-430.37 937.61,-429.85 936.78,-429.18 935.95,-428.52 934.97,-427.78 933.99,-427.05 932.90,-426.34 931.82,-425.63 930.84,-424.57 929.86,-423.52 929.08,-422.37 928.31,-421.22 926.98,-419.63 925.65,-418.04 924.08,-414.84 922.51,-411.64 920.71,-408.74 918.90,-405.84 917.24,-402.45 915.59,-399.06 913.47,-394.64 911.34,-390.23 909.91,-386.97 908.48,-383.72 906.82,-378.57 905.16,-373.41 902.14,-364.87 899.12,-356.33 895.56,-346.87 891.99,-337.41 885.44,-324.21 878.89,-311.01 874.11,-301.27 869.34,-291.53 863.45,-280.24 857.56,-268.95 850.78,-254.83 844.00,-240.71 839.56,-230.59 835.11,-220.46 829.01,-205.48 822.91,-190.50 819.17,-181.99 815.42,-173.49 811.86,-165.99 808.30,-158.50 804.07,-150.53 799.84,-142.55 797.36,-140.19 794.89,-137.82 792.75,-137.80 790.61,-137.77 788.21,-138.32 785.80,-138.87 783.70,-139.11 781.59,-139.35 780.71,-140.19 779.84,-141.02 778.66,-141.62 777.49,-142.22 776.43,-142.75 775.38,-143.28 774.55,-144.15 773.71,-145.02 772.77,-145.79 771.82,-146.55 771.13,-147.45 770.44,-148.36 769.71,-149.67 768.97,-150.98 768.26,-152.73 767.55,-154.48 766.98,-155.58 766.41,-156.67 765.61,-157.89 764.82,-159.11 763.97,-161.16 763.12,-163.21 761.94,-164.81 760.76,-166.41 758.84,-168.57 756.93,-170.73 756.13,-171.71 755.33,-172.69 754.50,-173.77 753.67,-174.85 752.31,-175.84 750.95,-176.84 749.45,-177.57 747.94,-178.30 746.91,-178.63 745.87,-178.96 744.55,-178.94 743.23,-178.92 742.06,-178.89 740.89,-178.86 739.63,-178.43 738.37,-178.00 737.15,-177.98 735.93,-177.96 734.84,-177.87 733.75,-177.78 732.61,-177.35 731.46,-176.92 729.60,-175.54 727.74,-174.17 724.96,-171.71 722.18,-169.25 719.38,-167.18 716.59,-165.11 715.13,-163.66 713.68,-162.22 712.05,-160.57 710.43,-158.93 708.37,-156.86 706.32,-154.78 703.37,-151.86 700.42,-148.94 699.44,-147.15 698.46,-145.36 697.65,-143.55 696.85,-141.75 695.90,-140.38 694.95,-139.02 693.73,-137.59 692.52,-136.16 690.95,-134.74 689.37,-133.33 687.28,-130.71 685.19,-128.09 683.86,-126.43 682.53,-124.76 681.10,-122.51 679.66,-120.26 678.09,-117.68 676.52,-115.10 675.38,-112.36 674.24,-109.62 672.48,-105.93 670.72,-102.24 669.25,-98.91 667.79,-95.58 666.94,-92.93 666.10,-90.28 664.99,-86.69 663.88,-83.09 662.18,-78.22 660.47,-73.34 659.08,-69.83 657.68,-66.31 655.45,-62.77 653.21,-59.23 650.58,-54.41 647.94,-49.58 644.40,-42.67 640.85,-35.75 638.70,-31.00 636.55,-26.25 634.05,-20.23 631.55,-14.21 629.34,-10.97 627.12,-7.73 624.64,-4.67 622.16,-1.62 619.82,1.11 617.49,3.86 615.57,5.76 613.65,7.67 612.28,8.37 610.91,9.06 609.30,8.69 607.69,8.32 605.70,6.96 603.72,5.61 601.95,4.31 600.18,3.01 596.63,1.57 593.08,0.12 590.86,-0.63 588.63,-1.39 586.00,-2.33 583.37,-3.27 580.85,-4.55 578.34,-5.83 575.35,-7.82 572.35,-9.81 569.57,-11.05 566.79,-12.29 563.65,-13.50 560.52,-14.72 556.80,-16.67 553.09,-18.61 551.64,-19.70 550.18,-20.79 548.62,-22.16 547.05,-23.54 544.92,-25.23 542.79,-26.92 541.72,-28.71 540.64,-30.49 538.94,-33.00 537.25,-35.51 536.02,-37.70 534.80,-39.88 533.68,-41.55 532.57,-43.22 530.77,-45.43 528.96,-47.63 526.41,-50.26 523.85,-52.90 521.49,-55.44 519.13,-57.99 516.93,-59.74 514.73,-61.50 512.34,-63.76 509.95,-66.02 506.92,-68.78 503.89,-71.54 502.34,-73.37 500.79,-75.20 498.70,-77.12 496.62,-79.04 494.58,-81.65 492.54,-84.27 491.56,-85.84 490.58,-87.41 489.00,-89.50 487.42,-91.59 486.66,-93.04 485.90,-94.49 484.98,-96.57 484.05,-98.64 482.90,-100.90 481.76,-103.15 481.08,-104.34 480.41,-105.54 479.76,-106.58 479.12,-107.63 478.04,-109.02 476.97,-110.42 476.37,-111.51 475.77,-112.60 475.19,-114.03 474.60,-115.46 473.99,-117.00 473.37,-118.54 472.78,-119.60 472.19,-120.66 471.83,-121.78 471.46,-122.90 470.20,-124.79 468.94,-126.67 467.85,-128.39 466.76,-130.10 465.00,-132.52 463.25,-134.94 461.89,-137.05 460.53,-139.16 459.33,-141.25 458.13,-143.34 456.21,-145.84 454.30,-148.34 453.45,-149.39 452.61,-150.43 451.09,-152.31 449.56,-154.19 448.46,-154.68 447.36,-155.17 446.60,-154.32 445.84,-153.47 444.89,-152.00 443.93,-150.52 441.97,-148.01 440.00,-145.50 437.26,-142.46 434.52,-139.43 433.19,-137.45 431.85,-135.46 429.97,-133.68 428.09,-131.89 428.06,-131.63 428.02,-131.37 427.93,-131.13 427.84,-130.88 427.69,-130.67 427.53,-130.45 427.34,-130.28 427.14,-130.10 426.91,-129.98 426.67,-129.86 426.42,-129.80 426.16,-129.74 425.90,-129.74 425.64,-129.74 425.38,-129.81 425.13,-129.87 424.89,-129.99 424.66,-130.12 424.47,-130.29 424.27,-130.47 424.12,-130.68 423.97,-130.90 423.88,-131.15 423.79,-131.39 423.76,-131.65 423.73,-131.92 423.80,-133.11 423.87,-134.31 423.91,-137.26 423.96,-140.20 424.08,-141.66 424.19,-143.12 424.38,-144.75 424.57,-146.38 424.86,-148.05 425.14,-149.72 425.03,-151.36 424.91,-153.01 424.62,-154.77 424.33,-156.53 424.47,-158.34 424.61,-160.14 424.81,-163.32 425.02,-166.49 424.70,-169.67 424.39,-172.86 423.69,-175.39 423.00,-177.93 422.39,-180.44 421.78,-182.94 421.41,-185.54 421.03,-188.14 420.50,-189.10 419.97,-190.05 419.24,-191.89 418.51,-193.72 418.00,-195.84 417.50,-197.96 417.34,-199.23 417.18,-200.51 416.63,-202.48 416.08,-204.45 415.39,-205.88 414.70,-207.31 414.01,-208.40 413.31,-209.49 412.69,-211.40 412.06,-213.31 411.03,-215.39 409.99,-217.47 409.36,-218.81 408.73,-220.15 407.56,-221.64 406.40,-223.12 405.75,-224.65 405.11,-226.18 404.22,-228.06 403.34,-229.94 402.19,-231.43 401.05,-232.92 399.18,-235.41 397.31,-237.90 395.59,-240.20 393.86,-242.50 392.50,-244.32 391.13,-246.13 389.61,-247.86 388.09,-249.60 386.36,-251.80 384.63,-254.01 383.16,-255.75 381.69,-257.48 380.08,-259.72 378.46,-261.96 377.48,-263.59 376.49,-265.23 374.88,-267.40 373.27,-269.57 371.30,-272.85 369.34,-276.13 368.42,-278.28 367.49,-280.43 366.21,-282.87 364.92,-285.31 362.71,-288.55 360.50,-291.79 358.87,-294.11 357.24,-296.42 355.26,-299.18 353.27,-301.93 352.30,-303.20 351.34,-304.46 349.65,-305.76 347.96,-307.07 345.88,-308.42 343.79,-309.76 341.24,-310.53 338.69,-311.30 337.13,-311.60 335.57,-311.91 334.05,-311.90 332.53,-311.90 330.79,-311.81 329.06,-311.72 327.62,-311.66 326.19,-311.59 325.08,-311.29 323.96,-310.98 322.05,-309.89 320.14,-308.81 318.51,-308.18 316.88,-307.56 315.99,-306.70 315.09,-305.84 314.00,-304.59 312.90,-303.34 311.93,-301.90 310.96,-300.45 309.79,-298.91 308.61,-297.37 306.72,-294.48 304.83,-291.58 303.14,-289.37 301.45,-287.15 299.17,-283.63 296.89,-280.10 293.26,-274.47 289.63,-268.84 285.55,-262.76 281.46,-256.69 278.04,-251.33 274.63,-245.98 273.50,-243.85 272.37,-241.72 270.13,-241.99 267.89,-242.25 268.08,-242.38 268.27,-242.51 268.48,-242.59 268.70,-242.67 268.93,-242.70 269.15,-242.73 269.38,-242.70 269.61,-242.67 269.82,-242.59 270.04,-242.51 270.23,-242.37 270.41,-242.24 270.56,-242.07 270.72,-241.90 270.82,-241.70 270.93,-241.49 270.98,-241.27 271.04,-241.05 271.03,-240.82 271.03,-240.59 270.98,-240.36 270.92,-240.14 270.81,-239.94 270.71,-239.74 270.55,-239.57 270.40,-239.39 269.21,-239.07 268.03,-238.74 266.76,-238.64 265.49,-238.55 263.63,-238.16 261.77,-237.77 259.80,-236.75 257.84,-235.73 255.65,-234.09 253.45,-232.45 251.89,-231.35 250.33,-230.25 248.25,-228.31 246.18,-226.37 242.39,-223.76 238.60,-221.14 234.04,-217.59 229.48,-214.04 224.16,-210.18 218.83,-206.32 211.62,-200.79 204.42,-195.26 194.49,-186.62 184.56,-177.98 177.25,-171.91 169.94,-165.85 160.72,-157.80 151.50,-149.74 139.57,-138.78 127.64,-127.82 110.20,-110.89 92.76,-93.96 75.82,-78.22 58.88,-62.48 50.87,-52.86 42.86,-43.23 35.55,-34.81 28.24,-26.39 21.79,-20.00 15.33,-13.61 10.87,-9.33 6.41,-5.06 3.79,-2.01 1.17,1.02 1.03,1.15 0.89,1.28 0.72,1.36 0.56,1.45 0.38,1.50 0.19,1.54 0.00,1.55 -0.17,1.55 -0.36,1.50 -0.54,1.46 -0.71,1.37 -0.87,1.29 -1.02,1.16 -1.16,1.04 -1.27,0.88 -1.37,0.73 -1.44,0.55 -1.51,0.38 -1.53,0.19 -1.56,0.00 -1.54,-0.17 -1.51,-0.36 -1.45,-0.54 -1.38,-0.71 -1.28,-0.87 -1.17,-1.02 -1.17,-1.02 L -1.17,-1.02 Z"/></g><g transform="translate(974.5588425378319 11.855812468742783) rotate(0 0.000023529399726385236 0.000023529399726385236)" stroke="none"><path fill="#1e1e1e" d="M 1.57,-1.57 Q 1.57,-1.57 1.77,-1.27 1.98,-0.98 2.09,-0.64 2.20,-0.29 2.19,0.05 2.18,0.41 2.05,0.75 1.93,1.09 1.70,1.37 1.48,1.65 1.18,1.84 0.87,2.03 0.52,2.12 0.18,2.21 -0.17,2.18 -0.53,2.15 -0.86,2.01 -1.19,1.87 -1.46,1.63 -1.73,1.39 -1.90,1.07 -2.08,0.76 -2.15,0.41 -2.21,0.05 -2.17,-0.29 -2.12,-0.65 -1.96,-0.97 -1.80,-1.29 -1.54,-1.54 -1.29,-1.80 -0.97,-1.96 -0.65,-2.12 -0.29,-2.17 0.06,-2.21 0.41,-2.15 0.76,-2.08 1.07,-1.90 1.39,-1.73 1.63,-1.46 1.87,-1.19 2.01,-0.86 2.15,-0.53 2.18,-0.17 2.21,0.18 2.12,0.52 2.03,0.87 1.84,1.18 1.65,1.48 1.37,1.70 1.09,1.93 0.75,2.05 0.41,2.18 0.05,2.19 -0.30,2.20 -0.64,2.09 -0.98,1.98 -1.27,1.77 -1.57,1.56 -1.57,1.57 -1.57,1.57 -1.73,1.35 -1.90,1.14 -2.01,0.90 -2.12,0.66 -2.16,0.39 -2.21,0.13 -2.20,-0.13 -2.18,-0.40 -2.10,-0.65 -2.02,-0.91 -1.88,-1.14 -1.74,-1.36 -1.55,-1.55 -1.36,-1.74 -1.14,-1.88 -0.91,-2.02 -0.65,-2.10 -0.40,-2.18 -0.13,-2.20 0.13,-2.21 0.39,-2.16 0.66,-2.12 0.90,-2.01 1.14,-1.90 1.35,-1.73 1.57,-1.57 1.57,-1.57 L 1.57,-1.57 Z"/></g><g transform="translate(973.3216533736112 10) rotate(0 13.918593515571075 8.660453400397813)" stroke="none"><path d="M-1.12 -0.15 L3.86 1.14 L3.97 -0.68 L12.44 -0.17 L13.19 2.25 L16.64 1.98 L18.64 1.94 L18.12 -0.12 L18.14 -0.57 L20.47 2.31 L21.77 1.86 L19.18 2.63 L24.68 1.31 L25.16 0.8 L23.82 -0.02 L26.73 -0.14 L25.49 1.03 L24.62 2.07 L27.07 4.44 L25.58 3.19 L27.57 5.97 L28.39 5.3 L26.93 4.67 L25.62 7.69 L27.96 7.34 L26.49 7.03 L29.78 6.84 L29.62 11.04 L27.92 9.66 L28.8 11.29 L27.42 12.34 L27.86 13.49 L28.86 16.07 L25.75 16.39 L27.23 16.48 L26.86 17.23 L28.43 15.65 L24.85 17.35 L24.77 15.93 L23.43 16.57 L20.09 16.95 L18.69 17.62 L16.36 17.35 L12.13 16.13 L10.47 16.71 L5.65 15.56 L6.33 14.87 L5.64 14.45 L5.51 15.73 L1.9 16.71 L1.28 13.54 L1.37 16.07 L1.76 16.79 L-1.25 12.87 L-0.61 15.4 L-1.53 12.67 L0.26 11.07 L1.63 8.86 L0.58 8.16 L0.59 2.82 L-0.23 5.26 L-0.2 1.95 L0.01 3.04 L0.18 -0.56 L0.49 1.3 L1.2 0.95" stroke="none" stroke-width="0" fill="#c2255c" fill-rule="evenodd"/><path fill="#e03131" d="M 0.26,-2.42 Q 0.26,-2.42 1.86,-2.21 3.46,-2.01 5.47,-1.81 7.48,-1.61 9.07,-1.58 10.66,-1.56 12.18,-1.39 13.70,-1.23 15.31,-1.24 16.92,-1.26 18.29,-1.36 19.65,-1.46 21.00,-1.79 22.35,-2.13 24.38,-1.86 26.41,-1.60 27.20,-0.79 28.00,0.01 28.99,1.33 29.98,2.65 30.20,3.97 30.43,5.30 30.71,6.35 30.99,7.40 31.11,9.09 31.23,10.77 31.00,11.86 30.77,12.94 30.74,14.16 30.70,15.38 30.48,16.59 30.26,17.81 29.02,18.96 27.78,20.11 26.43,20.20 25.08,20.28 23.64,19.98 22.20,19.67 19.90,19.52 17.61,19.36 16.28,19.31 14.95,19.25 13.67,19.21 12.39,19.17 10.78,18.92 9.17,18.68 7.96,18.62 6.75,18.57 5.40,18.58 4.06,18.60 2.15,18.29 0.24,17.98 -0.84,17.15 -1.93,16.32 -2.53,14.74 -3.13,13.15 -3.01,10.93 -2.89,8.70 -2.77,7.50 -2.66,6.29 -2.63,4.69 -2.61,3.09 -2.86,1.99 -3.11,0.89 -3.13,0.36 -3.16,-0.15 -3.01,-0.65 -2.87,-1.15 -2.57,-1.58 -2.28,-2.01 -1.86,-2.33 -1.44,-2.64 -0.94,-2.80 -0.45,-2.96 0.07,-2.96 0.59,-2.96 1.08,-2.79 1.58,-2.61 1.99,-2.30 2.40,-1.98 2.69,-1.54 2.98,-1.11 3.12,-0.60 3.25,-0.10 3.22,0.41 3.19,0.94 2.99,1.42 2.80,1.90 2.45,2.30 2.11,2.69 1.66,2.96 1.21,3.23 0.70,3.33 0.19,3.44 -0.32,3.38 -0.84,3.32 -1.31,3.10 -1.78,2.87 -2.16,2.51 -2.53,2.15 -2.78,1.69 -3.02,1.22 -3.10,0.71 -3.18,0.19 -3.09,-0.31 -3.00,-0.83 -2.75,-1.29 -2.50,-1.75 -2.12,-2.10 -1.74,-2.46 -1.26,-2.68 -0.79,-2.89 -0.27,-2.94 0.24,-3.00 0.75,-2.88 1.26,-2.76 1.71,-2.49 2.15,-2.22 2.49,-1.82 2.82,-1.42 3.01,-0.93 3.20,-0.44 3.20,-0.44 3.20,-0.44 3.50,1.36 3.81,3.18 3.75,4.89 3.70,6.59 3.68,8.25 3.65,9.91 3.88,11.12 4.11,12.34 5.62,12.39 7.13,12.45 8.52,12.61 9.91,12.77 11.16,12.88 12.41,13.00 13.70,12.97 14.98,12.93 16.33,12.89 17.68,12.85 20.27,12.81 22.86,12.77 24.40,13.43 25.94,14.09 24.84,14.70 23.74,15.30 23.84,13.84 23.94,12.38 24.29,10.77 24.64,9.15 24.52,7.24 24.41,5.32 23.47,4.47 22.54,3.62 21.08,3.78 19.62,3.93 18.16,3.78 16.70,3.63 14.90,3.38 13.10,3.14 11.83,2.92 10.57,2.70 8.95,2.66 7.33,2.62 5.13,2.67 2.93,2.72 1.33,2.57 -0.26,2.42 -0.55,2.35 -0.84,2.28 -1.10,2.15 -1.36,2.01 -1.58,1.82 -1.80,1.63 -1.97,1.39 -2.14,1.15 -2.25,0.88 -2.35,0.60 -2.39,0.31 -2.43,0.02 -2.40,-0.26 -2.37,-0.55 -2.26,-0.83 -2.16,-1.11 -2.00,-1.35 -1.83,-1.59 -1.62,-1.79 -1.40,-1.99 -1.14,-2.12 -0.88,-2.26 -0.60,-2.34 -0.31,-2.41 -0.02,-2.41 0.26,-2.42 0.26,-2.42 L 0.26,-2.42 Z"/></g></svg>