<svg version="1.1" xmlns="http://www.w3.org/2000/svg" viewBox="0 0 849.87108313519 482.1891024973415" width="849.87108313519" height="482.1891024973415">
  <!-- svg-source:excalidraw -->
  
  <defs>
    <style class="style-fonts">
      @font-face {
        font-family: "Virgil";
        src: url("https://excalidraw.com/Virgil.woff2");
      }
      @font-face {
        font-family: "Cascadia";
        src: url("https://excalidraw.com/Cascadia.woff2");
      }
    </style>
    
  </defs>
  <rect x="0" y="0" width="849.87108313519" height="482.1891024973415" fill="#ffffff"/><g transform="translate(714.4192186071618 10) rotate(0 -0.463952512297368 7.887189118758499)" stroke="none"><path fill="#1e1e1e" d="M 2.55,-0.34 Q 2.55,-0.34 2.73,0.99 2.91,2.32 3.22,3.70 3.52,5.08 3.67,6.26 3.81,7.44 3.90,8.78 3.99,10.12 3.90,11.32 3.82,12.52 3.56,13.69 3.30,14.87 1.89,16.47 0.48,18.07 -0.88,18.01 -2.26,17.95 -3.58,16.36 -4.89,14.78 -4.76,13.49 -4.63,12.21 -4.22,11.18 -3.81,10.16 -3.89,8.98 -3.96,7.80 -4.20,6.56 -4.43,5.32 -4.77,4.06 -5.12,2.79 -5.24,2.21 -5.35,1.63 -5.31,1.19 -5.27,0.75 -5.13,0.34 -4.99,-0.07 -4.75,-0.44 -4.51,-0.80 -4.19,-1.11 -3.87,-1.41 -3.49,-1.62 -3.11,-1.84 -2.69,-1.95 -2.26,-2.07 -1.82,-2.09 -1.39,-2.10 -0.96,-2.01 -0.53,-1.91 -0.13,-1.72 0.25,-1.53 0.59,-1.25 0.93,-0.97 1.19,-0.62 1.45,-0.26 1.61,0.13 1.78,0.54 1.85,0.97 1.91,1.41 0.87,-0.01 -0.16,-1.44 0.77,-0.71 1.71,0.00 2.47,2.13 3.23,4.26 3.59,5.45 3.95,6.65 4.07,8.06 4.19,9.47 4.07,11.28 3.95,13.09 3.81,14.18 3.67,15.27 3.67,15.56 3.67,15.84 3.58,16.27 3.49,16.71 3.29,17.11 3.10,17.51 2.82,17.85 2.54,18.19 2.18,18.45 1.82,18.72 1.41,18.89 1.00,19.06 0.57,19.13 0.13,19.20 -0.30,19.16 -0.75,19.12 -1.17,18.98 -1.59,18.83 -1.96,18.59 -2.33,18.35 -2.64,18.03 -2.94,17.71 -3.16,17.32 -3.38,16.94 -3.50,16.51 -3.62,16.08 -3.64,15.64 -3.65,15.20 -3.64,13.68 -3.63,12.16 -3.60,10.61 -3.57,9.06 -3.57,7.95 -3.58,6.85 -3.58,5.38 -3.59,3.90 -3.55,1.47 -3.51,-0.95 -3.19,-1.44 -2.88,-1.93 -2.43,-2.30 -1.97,-2.67 -1.43,-2.87 -0.88,-3.07 -0.30,-3.09 0.28,-3.11 0.83,-2.94 1.39,-2.77 1.87,-2.43 2.34,-2.09 2.68,-1.62 3.02,-1.14 3.20,-0.59 3.37,-0.03 3.35,0.54 3.34,1.13 3.14,1.67 2.94,2.22 2.58,2.68 2.21,3.13 1.72,3.45 1.23,3.76 0.66,3.91 0.10,4.05 -0.47,4.00 -1.05,3.96 -1.59,3.73 -2.13,3.50 -2.56,3.11 -3.00,2.72 -3.28,2.21 -3.57,1.71 -3.68,1.13 -3.79,0.56 -3.72,-0.01 -3.64,-0.58 -3.38,-1.11 -3.12,-1.63 -2.71,-2.04 -2.30,-2.46 -1.78,-2.72 -1.26,-2.98 -0.68,-3.06 -0.10,-3.14 0.46,-3.03 1.03,-2.92 1.54,-2.63 2.05,-2.35 2.44,-1.92 2.83,-1.48 3.06,-0.95 3.29,-0.41 3.34,0.16 3.39,0.74 3.25,1.31 3.11,1.87 3.11,1.87 3.11,1.87 3.35,3.44 3.59,5.01 3.58,6.38 3.57,7.76 3.59,9.31 3.62,10.85 3.63,12.19 3.65,13.54 3.66,14.69 3.67,15.84 3.58,16.27 3.49,16.71 3.30,17.11 3.10,17.51 2.82,17.85 2.54,18.19 2.18,18.45 1.82,18.72 1.41,18.89 1.00,19.06 0.57,19.13 0.13,19.20 -0.30,19.16 -0.75,19.12 -1.17,18.98 -1.59,18.83 -1.96,18.59 -2.33,18.35 -2.64,18.03 -2.94,17.71 -3.16,17.32 -3.38,16.94 -3.50,16.51 -3.62,16.08 -3.64,15.64 -3.65,15.20 -3.47,14.10 -3.30,13.01 -3.14,11.66 -2.97,10.30 -3.00,9.02 -3.03,7.73 -3.05,6.12 -3.07,4.51 -4.21,3.07 -5.35,1.63 -5.31,1.19 -5.27,0.75 -5.13,0.34 -4.99,-0.07 -4.75,-0.44 -4.51,-0.80 -4.19,-1.10 -3.87,-1.41 -3.49,-1.62 -3.11,-1.84 -2.69,-1.95 -2.26,-2.07 -1.82,-2.09 -1.39,-2.10 -0.96,-2.01 -0.53,-1.92 -0.13,-1.72 0.25,-1.53 0.59,-1.25 0.93,-0.97 1.19,-0.62 1.45,-0.26 1.61,0.13 1.78,0.54 1.85,0.97 1.91,1.41 1.97,1.82 2.03,2.23 2.35,3.81 2.67,5.39 2.92,6.85 3.17,8.31 3.08,9.76 3.00,11.22 2.21,12.43 1.43,13.65 0.52,12.96 -0.37,12.28 -1.58,12.59 -2.80,12.91 -2.48,11.80 -2.16,10.68 -2.09,9.43 -2.01,8.18 -1.94,7.02 -1.87,5.86 -2.04,4.43 -2.20,3.00 -2.37,1.67 -2.55,0.34 -2.55,0.02 -2.55,-0.28 -2.48,-0.58 -2.41,-0.88 -2.27,-1.16 -2.13,-1.43 -1.93,-1.67 -1.72,-1.90 -1.47,-2.08 -1.22,-2.26 -0.93,-2.37 -0.64,-2.49 -0.33,-2.53 -0.03,-2.57 0.27,-2.54 0.58,-2.50 0.87,-2.40 1.17,-2.29 1.42,-2.12 1.68,-1.94 1.89,-1.71 2.10,-1.48 2.24,-1.21 2.39,-0.94 2.47,-0.64 2.55,-0.34 2.55,-0.34 L 2.55,-0.34 Z"/></g><g stroke-linecap="round" transform="translate(227.44387042664206 118.35919850718096) rotate(0 5.938318034190132 6.516094539261587)"><path d="M8.45 0.65 C9.5 0.68, 9.76 1.17, 10.19 2.31 C10.63 3.44, 11 5.88, 11.04 7.46 C11.09 9.04, 11.28 10.8, 10.47 11.8 C9.66 12.8, 7.69 13.48, 6.2 13.47 C4.71 13.46, 2.68 12.63, 1.52 11.74 C0.36 10.86, -0.59 9.43, -0.76 8.17 C-0.93 6.9, -0.13 5.35, 0.49 4.13 C1.12 2.91, 1.84 1.48, 3.01 0.85 C4.17 0.22, 6.71 0.4, 7.49 0.36 C8.27 0.32, 7.6 0.52, 7.69 0.61 M3.74 2.02 C4.49 1.31, 5.71 0.87, 7.02 0.89 C8.33 0.91, 10.92 1.12, 11.62 2.12 C12.32 3.13, 11.69 5.67, 11.21 6.95 C10.73 8.22, 9.63 8.64, 8.73 9.77 C7.83 10.91, 6.93 13.43, 5.82 13.75 C4.7 14.08, 2.8 12.82, 2.05 11.74 C1.31 10.65, 1.41 8.65, 1.37 7.23 C1.33 5.81, 1.66 4.27, 1.82 3.23 C1.97 2.2, 1.88 1.44, 2.28 1 C2.68 0.57, 4.2 0.46, 4.2 0.61" stroke="#000000" stroke-width="2" fill="none"/></g><g stroke-linecap="round"><g transform="translate(231.65028393590708 131.4916235073511) rotate(0 -0.3346192793917737 7.609395674107624)"><path d="M0.63 0.21 C0.73 2.98, 0.54 13.99, 0.41 16.37 M-0.49 -0.72 C-0.45 1.76, 0.06 12.16, 0.03 14.85" stroke="#000000" stroke-width="2" fill="none"/></g></g><mask/><g stroke-linecap="round"><g transform="translate(230.8754245578 146.52579849449629) rotate(0 2.0760969100843596 4.236375889435806)"><path d="M1.08 1.15 C1.75 2.4, 4.24 6.67, 4.66 7.73 M0.19 0.71 C0.69 2.08, 3.59 7.61, 3.98 8.88" stroke="#000000" stroke-width="2" fill="none"/></g></g><mask/><g stroke-linecap="round"><g transform="translate(230.66888462066453 146.21420388963173) rotate(0 -3.345020129326585 3.831515120250586)"><path d="M0.51 -0.74 C-0.89 0.18, -6.14 5.22, -7.27 6.69 M-0.69 1.48 C-1.77 3.04, -3.84 6.97, -4.86 7.72" stroke="#000000" stroke-width="2" fill="none"/></g></g><mask/><g stroke-linecap="round"><g transform="translate(225.44383985301386 133.4962886254922) rotate(0 2.9260029354448704 2.808503035811121)"><path d="M-0.58 -0.97 C0.38 0.16, 5.08 4.98, 6.28 6.03 M1.32 1.13 C2.11 1.96, 4.73 3.23, 5.56 4.12" stroke="#000000" stroke-width="2" fill="none"/></g></g><mask/><g stroke-linecap="round"><g transform="translate(230.85634101540177 138.73690658345447) rotate(0 4.216586072183006 -2.3780957947613928)"><path d="M0.43 0.41 C2.07 -0.27, 7.8 -3.99, 9.23 -5.05 M-0.8 -0.42 C0.79 -0.83, 7.15 -2.86, 8.7 -3.67" stroke="#000000" stroke-width="2" fill="none"/></g></g><mask/><g stroke-linecap="round"><g transform="translate(228.7197043632583 119.61913753693918) rotate(0 1.2531107242332382 -1.8436957331167747)" fill-rule="evenodd"><path d="M1.92 1.58 L5.78 -3.38 L10.1 2.41 L-8.56 -0.84 L-0.66 -0.37" stroke="none" stroke-width="0" fill="#4c6ef5" fill-rule="evenodd"/><path d="M0.8 -0.29 C1.72 -1.45, 4.39 -6.36, 6 -6.5 C7.6 -6.65, 9.77 -2.39, 10.42 -1.17 C11.08 0.05, 10 0.42, 9.92 0.8 C9.84 1.18, 12.88 1.24, 9.95 1.09 C7.02 0.95, -4.64 0.39, -7.66 -0.05 C-10.68 -0.49, -9.41 -1.57, -8.16 -1.54 C-6.91 -1.52, -1.51 0.01, -0.15 0.08 M-0.24 -1.49 C0.54 -2.58, 3.7 -5.77, 5.34 -5.59 C6.98 -5.42, 8.79 -1.7, 9.59 -0.46 C10.39 0.79, 10.3 1.58, 10.16 1.86 C10.01 2.14, 12.04 1.16, 8.72 1.21 C5.41 1.26, -7.03 2.35, -9.75 2.17 C-12.47 1.99, -8.98 0.53, -7.58 0.14 C-6.18 -0.25, -2.93 -0.25, -1.36 -0.17" stroke="#000000" stroke-width="1" fill="none"/></g></g><mask/><g stroke-linecap="round"><g transform="translate(234.3644152670186 114.93933682399944) rotate(0 0.9072849285487194 -2.750890298041142)"><path d="M0 0 C-0.02 -0.45, 0.47 -2.27, -0.14 -2.72 C-0.74 -3.18, -2.73 -2.27, -3.62 -2.73 C-4.51 -3.19, -6.69 -5.75, -5.47 -5.5 C-4.25 -5.26, 1.6 -1.63, 3.73 -1.25 C5.85 -0.87, 7.85 -2.99, 7.28 -3.2 C6.72 -3.4, 1.52 -2.6, 0.37 -2.47 M0 0 C-0.02 -0.45, 0.47 -2.27, -0.14 -2.72 C-0.74 -3.18, -2.73 -2.27, -3.62 -2.73 C-4.51 -3.19, -6.69 -5.75, -5.47 -5.5 C-4.25 -5.26, 1.6 -1.63, 3.73 -1.25 C5.85 -0.87, 7.85 -2.99, 7.28 -3.2 C6.72 -3.4, 1.52 -2.6, 0.37 -2.47" stroke="#000000" stroke-width="1" fill="none"/></g></g><mask/><g transform="translate(713.1820023335774 10.927905024594736) rotate(0 0.00001176468452968038 0.000011764684515469526)" stroke="none"><path fill="#1e1e1e" d="M 1.57,-1.57 Q 1.57,-1.57 1.77,-1.27 1.98,-0.98 2.09,-0.64 2.20,-0.29 2.19,0.05 2.18,0.41 2.05,0.75 1.93,1.09 1.70,1.37 1.48,1.65 1.18,1.84 0.87,2.03 0.52,2.12 0.18,2.21 -0.17,2.18 -0.53,2.15 -0.86,2.01 -1.19,1.87 -1.46,1.63 -1.73,1.39 -1.90,1.07 -2.08,0.76 -2.15,0.41 -2.21,0.05 -2.17,-0.29 -2.12,-0.65 -1.96,-0.97 -1.80,-1.29 -1.54,-1.54 -1.29,-1.80 -0.97,-1.96 -0.65,-2.12 -0.29,-2.17 0.06,-2.21 0.41,-2.15 0.76,-2.08 1.07,-1.90 1.39,-1.73 1.63,-1.46 1.87,-1.19 2.01,-0.86 2.15,-0.53 2.18,-0.17 2.21,0.18 2.12,0.52 2.03,0.87 1.84,1.18 1.65,1.48 1.37,1.70 1.09,1.93 0.75,2.05 0.41,2.18 0.05,2.19 -0.30,2.20 -0.64,2.09 -0.98,1.98 -1.27,1.77 -1.57,1.56 -1.57,1.56 -1.57,1.57 -1.73,1.35 -1.90,1.14 -2.01,0.90 -2.12,0.66 -2.16,0.39 -2.21,0.13 -2.20,-0.13 -2.18,-0.40 -2.10,-0.65 -2.02,-0.91 -1.88,-1.14 -1.74,-1.36 -1.55,-1.55 -1.36,-1.74 -1.14,-1.88 -0.91,-2.02 -0.65,-2.10 -0.40,-2.18 -0.13,-2.20 0.13,-2.21 0.39,-2.16 0.66,-2.12 0.90,-2.01 1.14,-1.90 1.35,-1.73 1.57,-1.57 1.57,-1.57 L 1.57,-1.57 Z"/></g><g transform="translate(712.5634085579724 10) rotate(0 6.9592876844605485 4.330221054577592)" stroke="none"><path d="M-1.12 -0.15 L2.62 1.14 L1.19 -0.99 L7.19 -0.48 L6.69 1.94 L8.9 1.36 L10.29 1.32 L9.15 -0.74 L8.86 -1.19 L10.88 1.69 L11.57 1.24 L8.66 2.01 L13.24 1 L13.4 0.49 L11.75 -0.33 L14.36 -0.45 L12.81 0.41 L11.63 0.83 L13.77 2.9 L11.97 1.33 L13.96 3.81 L14.78 2.82 L13.32 1.58 L12.02 4.29 L14.35 3.63 L12.57 3.01 L15.86 2.51 L15.7 6.4 L14 4.71 L14.89 5.42 L13.81 5.84 L14.25 6.68 L15.25 8.96 L12.14 8.97 L13.63 8.43 L13.25 8.87 L14.82 6.99 L11.55 8.69 L12.08 7.58 L11.67 8.53 L9.57 8.91 L9.1 9.58 L8.63 9.3 L5.64 8.09 L5.21 8.67 L1.94 7.83 L2.92 7.14 L2.55 6.72 L3.35 8 L0.35 8.98 L0.04 5.81 L0.44 8.34 L1.15 9.36 L-1.56 5.45 L-0.91 8.29 L-1.53 6.17 L0.26 5.19 L1.63 3.91 L0.27 4.13 L0.29 0.65 L-0.54 3.4 L-0.51 1.02 L-0.3 2.42 L0.18 -0.87 L0.49 1.3 L1.2 0.95" stroke="none" stroke-width="0" fill="#c2255c" fill-rule="evenodd"/><path fill="#e03131" d="M 0.15,-2.55 Q 0.15,-2.55 1.66,-2.44 3.17,-2.33 5.05,-2.26 6.93,-2.19 8.14,-2.23 9.34,-2.28 10.43,-2.50 11.52,-2.73 12.77,-2.45 14.01,-2.17 14.88,-1.34 15.75,-0.52 16.26,0.57 16.76,1.67 16.99,2.86 17.23,4.06 17.13,5.49 17.02,6.92 16.83,8.16 16.63,9.39 15.49,10.47 14.34,11.54 13.21,11.68 12.08,11.83 10.43,11.71 8.78,11.58 7.48,11.58 6.19,11.57 4.91,11.43 3.64,11.30 2.32,11.28 1.00,11.27 -0.80,10.25 -2.61,9.23 -3.05,8.08 -3.49,6.93 -3.44,5.46 -3.39,3.99 -3.45,2.42 -3.52,0.86 -3.55,0.27 -3.58,-0.30 -3.41,-0.87 -3.25,-1.43 -2.92,-1.92 -2.59,-2.40 -2.12,-2.75 -1.65,-3.10 -1.09,-3.29 -0.53,-3.47 0.05,-3.46 0.63,-3.46 1.19,-3.27 1.74,-3.08 2.21,-2.72 2.67,-2.36 3.00,-1.87 3.32,-1.38 3.48,-0.81 3.63,-0.25 3.59,0.33 3.56,0.91 3.33,1.46 3.11,2.00 2.73,2.45 2.35,2.89 1.84,3.19 1.33,3.49 0.76,3.61 0.19,3.73 -0.39,3.66 -0.97,3.59 -1.50,3.34 -2.03,3.09 -2.45,2.69 -2.88,2.28 -3.15,1.76 -3.42,1.24 -3.51,0.66 -3.60,0.08 -3.50,-0.49 -3.40,-1.07 -3.12,-1.59 -2.84,-2.10 -2.41,-2.50 -1.98,-2.90 -1.45,-3.15 -0.91,-3.39 -0.33,-3.45 0.24,-3.51 0.82,-3.37 1.39,-3.24 1.89,-2.94 2.39,-2.63 2.77,-2.18 3.14,-1.73 3.36,-1.18 3.57,-0.64 3.57,-0.64 3.57,-0.64 3.17,1.77 2.78,4.18 3.99,4.28 5.20,4.37 6.35,4.44 7.50,4.51 8.97,4.52 10.45,4.52 11.48,5.04 12.51,5.55 11.32,6.59 10.14,7.63 10.50,6.50 10.86,5.36 11.26,4.36 11.65,3.36 10.23,3.41 8.81,3.46 7.51,3.29 6.22,3.11 4.54,2.90 2.87,2.68 1.36,2.62 -0.15,2.55 -0.45,2.49 -0.75,2.44 -1.03,2.31 -1.31,2.19 -1.56,2.00 -1.80,1.81 -1.99,1.56 -2.18,1.32 -2.31,1.04 -2.43,0.76 -2.49,0.46 -2.55,0.15 -2.53,-0.14 -2.51,-0.45 -2.42,-0.75 -2.33,-1.04 -2.17,-1.30 -2.01,-1.57 -1.79,-1.79 -1.57,-2.00 -1.31,-2.16 -1.05,-2.32 -0.75,-2.42 -0.46,-2.51 -0.15,-2.53 0.15,-2.55 0.15,-2.55 L 0.15,-2.55 Z"/></g><g transform="translate(10 472.1891024973415) rotate(0 414.935541567595 -222.32771500297213)" stroke="none"><path fill="#1e1e1e" d="M -0.66,-0.40 Q -0.66,-0.40 0.33,-2.03 1.33,-3.67 2.73,-6.31 4.14,-8.96 7.05,-14.04 9.96,-19.13 12.84,-23.92 15.73,-28.71 19.26,-34.36 22.79,-40.01 30.21,-51.29 37.63,-62.57 43.07,-71.62 48.52,-80.67 53.13,-88.79 57.75,-96.91 62.98,-107.90 68.22,-118.89 72.10,-126.85 75.97,-134.82 78.94,-140.52 81.91,-146.21 85.79,-153.56 89.68,-160.90 92.65,-166.65 95.61,-172.40 100.18,-179.15 104.75,-185.90 108.00,-190.41 111.26,-194.91 114.27,-199.44 117.29,-203.97 119.21,-207.52 121.14,-211.07 122.62,-214.21 124.09,-217.36 125.71,-220.36 127.34,-223.36 130.33,-228.26 133.33,-233.16 135.58,-237.20 137.83,-241.24 140.77,-245.93 143.71,-250.62 145.95,-253.62 148.20,-256.61 150.11,-259.82 152.03,-263.03 153.16,-265.68 154.29,-268.33 155.46,-270.18 156.63,-272.02 158.77,-275.10 160.91,-278.18 162.46,-280.78 164.01,-283.37 166.34,-286.49 168.66,-289.60 170.64,-291.91 172.62,-294.23 174.12,-295.87 175.62,-297.51 177.27,-298.89 178.93,-300.27 179.57,-301.13 180.22,-301.98 180.89,-302.49 181.56,-303.00 182.51,-303.49 183.46,-303.98 184.46,-304.80 185.46,-305.62 187.31,-306.36 189.17,-307.11 190.87,-308.04 192.56,-308.96 194.97,-310.04 197.38,-311.11 201.04,-312.55 204.69,-313.99 207.94,-314.61 211.19,-315.24 215.22,-315.50 219.25,-315.76 221.94,-315.87 224.62,-315.98 228.13,-315.37 231.64,-314.75 234.15,-313.82 236.65,-312.88 238.67,-312.17 240.70,-311.45 243.24,-310.14 245.79,-308.83 247.54,-307.60 249.30,-306.37 251.05,-304.85 252.79,-303.33 254.19,-302.03 255.58,-300.73 257.17,-299.19 258.75,-297.65 259.78,-296.30 260.81,-294.96 261.89,-293.40 262.98,-291.85 264.08,-290.56 265.18,-289.27 266.33,-287.71 267.47,-286.15 268.29,-284.82 269.11,-283.49 269.75,-283.03 270.38,-282.58 271.37,-281.29 272.36,-280.00 273.07,-279.16 273.78,-278.33 274.78,-276.60 275.78,-274.87 276.82,-273.53 277.86,-272.20 278.95,-270.98 280.05,-269.75 280.84,-268.90 281.64,-268.05 282.34,-266.98 283.04,-265.92 284.30,-264.18 285.56,-262.45 287.40,-260.41 289.23,-258.38 290.38,-256.47 291.54,-254.56 293.31,-252.15 295.08,-249.74 296.49,-248.07 297.89,-246.39 298.86,-244.63 299.82,-242.88 301.20,-240.52 302.58,-238.16 303.84,-235.48 305.09,-232.81 305.94,-231.38 306.78,-229.95 307.81,-228.00 308.84,-226.06 309.62,-223.88 310.40,-221.70 311.05,-220.15 311.70,-218.60 311.99,-216.88 312.29,-215.16 312.73,-213.85 313.16,-212.54 313.66,-211.69 314.15,-210.84 314.45,-210.08 314.75,-209.32 315.48,-207.39 316.21,-205.46 317.16,-203.34 318.12,-201.21 318.86,-199.64 319.59,-198.08 320.24,-196.40 320.89,-194.72 321.81,-192.73 322.72,-190.73 323.75,-189.26 324.77,-187.79 325.25,-186.41 325.74,-185.04 326.86,-183.59 327.99,-182.14 328.83,-180.80 329.68,-179.46 330.68,-177.93 331.69,-176.39 332.72,-175.46 333.76,-174.54 334.93,-172.74 336.10,-170.95 337.18,-169.94 338.26,-168.94 339.08,-168.15 339.89,-167.37 341.22,-166.05 342.56,-164.73 343.48,-163.47 344.41,-162.21 345.11,-161.38 345.80,-160.55 347.07,-159.23 348.35,-157.90 349.22,-157.00 350.09,-156.10 350.80,-155.40 351.51,-154.70 352.47,-153.74 353.42,-152.78 354.19,-151.66 354.96,-150.55 355.90,-149.47 356.84,-148.39 357.87,-147.63 358.89,-146.87 359.45,-146.15 360.02,-145.44 360.83,-144.52 361.64,-143.61 362.09,-142.82 362.54,-142.03 363.01,-141.47 363.47,-140.92 364.01,-140.35 364.54,-139.79 364.84,-139.14 365.14,-138.50 365.85,-137.80 366.56,-137.11 367.26,-136.65 367.95,-136.19 368.34,-135.63 368.73,-135.07 369.58,-134.64 370.42,-134.22 371.27,-133.29 372.13,-132.37 372.70,-132.11 373.26,-131.85 373.96,-131.32 374.65,-130.80 375.36,-130.65 376.07,-130.51 377.05,-130.38 378.02,-130.26 378.78,-130.24 379.53,-130.22 380.72,-130.47 381.91,-130.73 383.08,-131.14 384.25,-131.55 385.66,-132.65 387.07,-133.75 389.64,-136.81 392.20,-139.88 394.65,-142.53 397.09,-145.18 399.09,-147.91 401.09,-150.64 403.58,-154.74 406.07,-158.85 407.78,-162.22 409.49,-165.59 410.54,-168.64 411.58,-171.68 412.68,-176.25 413.78,-180.82 414.91,-185.73 416.04,-190.63 416.85,-194.04 417.66,-197.44 418.33,-200.85 419.00,-204.25 419.62,-206.71 420.24,-209.16 420.83,-211.20 421.43,-213.23 422.01,-215.08 422.59,-216.93 423.17,-218.40 423.76,-219.86 423.97,-220.77 424.18,-221.68 424.98,-223.14 425.78,-224.60 426.42,-226.14 427.06,-227.68 427.32,-228.65 427.58,-229.61 428.39,-231.09 429.19,-232.57 429.87,-233.53 430.56,-234.48 431.47,-236.16 432.39,-237.83 432.77,-238.85 433.16,-239.87 434.03,-241.05 434.90,-242.23 435.59,-243.05 436.28,-243.87 436.89,-244.57 437.50,-245.27 438.17,-245.68 438.84,-246.09 439.75,-246.53 440.66,-246.96 441.44,-247.22 442.22,-247.48 442.91,-247.61 443.59,-247.74 444.22,-247.82 444.85,-247.89 446.12,-247.85 447.38,-247.82 448.99,-247.45 450.60,-247.08 452.87,-246.59 455.15,-246.09 456.74,-245.88 458.34,-245.67 459.75,-245.23 461.16,-244.78 462.35,-244.60 463.55,-244.42 464.25,-244.00 464.96,-243.58 465.56,-243.08 466.16,-242.59 466.75,-242.06 467.34,-241.52 467.92,-240.97 468.50,-240.42 469.37,-239.50 470.24,-238.57 471.26,-237.51 472.28,-236.45 473.65,-235.36 475.03,-234.28 475.69,-233.42 476.36,-232.56 477.48,-231.98 478.60,-231.40 479.49,-230.75 480.38,-230.11 481.11,-229.52 481.84,-228.93 483.03,-228.39 484.21,-227.85 485.42,-227.27 486.62,-226.68 488.14,-225.75 489.66,-224.83 490.58,-224.47 491.50,-224.11 492.64,-223.24 493.79,-222.37 494.87,-221.71 495.94,-221.05 497.06,-220.44 498.17,-219.82 499.60,-219.25 501.03,-218.67 502.32,-218.09 503.61,-217.50 504.45,-217.30 505.29,-217.10 506.72,-216.30 508.15,-215.49 509.00,-215.21 509.86,-214.93 511.22,-214.45 512.58,-213.98 513.77,-213.78 514.95,-213.59 515.91,-213.16 516.86,-212.74 518.54,-211.89 520.22,-211.05 521.58,-210.36 522.95,-209.67 524.19,-209.05 525.42,-208.42 526.53,-208.18 527.64,-207.94 528.56,-207.49 529.49,-207.04 530.11,-206.93 530.73,-206.82 531.61,-206.76 532.48,-206.70 533.19,-206.70 533.91,-206.71 535.44,-206.98 536.96,-207.25 538.26,-207.68 539.56,-208.10 541.13,-208.61 542.70,-209.12 544.99,-209.98 547.28,-210.84 548.50,-211.81 549.73,-212.78 551.99,-213.91 554.25,-215.04 556.20,-215.84 558.14,-216.64 560.89,-218.26 563.63,-219.89 566.42,-222.20 569.21,-224.52 572.06,-226.83 574.91,-229.14 578.71,-233.37 582.51,-237.60 584.76,-241.34 587.01,-245.07 589.95,-250.29 592.89,-255.50 595.13,-259.37 597.37,-263.24 598.97,-266.50 600.57,-269.77 603.23,-275.11 605.88,-280.45 609.65,-287.33 613.41,-294.21 615.99,-299.10 618.57,-303.99 621.63,-310.97 624.69,-317.96 626.98,-323.24 629.27,-328.52 631.23,-332.74 633.19,-336.96 635.02,-340.73 636.84,-344.50 639.60,-348.76 642.37,-353.03 644.52,-356.15 646.68,-359.27 648.25,-361.57 649.82,-363.88 651.16,-365.54 652.50,-367.20 653.36,-368.83 654.22,-370.46 654.93,-371.83 655.63,-373.20 656.25,-374.74 656.87,-376.28 657.47,-377.61 658.07,-378.95 658.30,-380.10 658.53,-381.25 659.30,-384.73 660.06,-388.21 660.72,-390.37 661.38,-392.53 661.65,-394.38 661.92,-396.23 662.37,-397.73 662.83,-399.24 663.35,-401.17 663.86,-403.09 664.42,-404.60 664.98,-406.11 665.57,-407.12 666.15,-408.13 667.04,-409.84 667.93,-411.54 668.29,-412.87 668.64,-414.20 669.50,-415.54 670.36,-416.88 671.03,-418.05 671.69,-419.22 672.97,-421.37 674.25,-423.52 675.45,-425.43 676.65,-427.33 677.50,-428.49 678.36,-429.64 679.01,-431.06 679.66,-432.47 680.30,-433.47 680.95,-434.46 681.94,-435.27 682.93,-436.08 683.62,-436.72 684.31,-437.37 684.91,-437.99 685.52,-438.60 686.12,-439.22 686.73,-439.84 688.15,-440.16 689.57,-440.48 690.70,-440.88 691.83,-441.28 692.71,-441.51 693.58,-441.74 695.24,-442.12 696.91,-442.51 698.24,-442.98 699.57,-443.46 700.52,-443.70 701.46,-443.94 702.21,-444.09 702.96,-444.23 703.83,-444.55 704.70,-444.88 705.49,-445.09 706.28,-445.30 706.97,-445.41 707.65,-445.52 708.95,-445.51 710.25,-445.50 711.13,-445.52 712.01,-445.54 713.84,-444.83 715.66,-444.12 717.35,-443.49 719.03,-442.86 720.49,-441.89 721.94,-440.92 724.52,-438.85 727.09,-436.79 728.89,-434.55 730.68,-432.31 732.10,-430.03 733.51,-427.75 735.43,-423.81 737.36,-419.87 738.50,-416.86 739.65,-413.86 740.47,-411.60 741.28,-409.34 742.59,-406.78 743.90,-404.22 744.81,-402.11 745.71,-400.00 747.37,-397.52 749.04,-395.04 750.43,-392.63 751.82,-390.22 753.70,-387.58 755.58,-384.95 756.74,-382.80 757.90,-380.65 759.03,-378.78 760.16,-376.91 761.31,-374.78 762.46,-372.65 763.62,-369.06 764.79,-365.48 766.25,-362.38 767.70,-359.27 768.66,-356.94 769.62,-354.60 771.00,-352.00 772.38,-349.40 773.62,-347.31 774.86,-345.22 776.03,-343.70 777.19,-342.18 778.70,-339.86 780.20,-337.53 781.49,-335.57 782.78,-333.61 784.32,-331.12 785.86,-328.64 787.82,-325.96 789.77,-323.28 790.96,-321.12 792.14,-318.95 793.62,-316.41 795.10,-313.87 796.38,-311.81 797.66,-309.74 798.54,-308.20 799.42,-306.66 800.39,-305.75 801.36,-304.84 802.79,-303.43 804.22,-302.02 805.19,-300.73 806.15,-299.44 807.19,-298.27 808.22,-297.10 809.65,-295.62 811.08,-294.14 811.72,-293.12 812.37,-292.11 812.96,-291.42 813.55,-290.72 814.15,-289.71 814.75,-288.70 815.32,-288.00 815.88,-287.31 816.46,-286.71 817.05,-286.10 817.98,-284.44 818.91,-282.77 819.61,-281.42 820.32,-280.07 820.66,-279.13 821.00,-278.19 821.15,-277.50 821.30,-276.81 821.95,-276.08 822.60,-275.36 822.96,-274.54 823.32,-273.73 823.78,-273.12 824.23,-272.51 824.75,-271.92 825.27,-271.33 825.61,-270.61 825.95,-269.90 826.58,-269.09 827.21,-268.28 827.62,-267.47 828.02,-266.65 828.22,-265.93 828.41,-265.21 828.74,-264.36 829.06,-263.51 829.90,-261.86 830.74,-260.20 830.76,-260.03 830.79,-259.86 830.76,-259.70 830.73,-259.53 830.65,-259.38 830.57,-259.23 830.45,-259.11 830.32,-258.99 830.17,-258.92 830.01,-258.85 829.84,-258.83 829.67,-258.82 829.50,-258.86 829.34,-258.89 829.19,-258.98 829.05,-259.07 828.94,-259.20 828.83,-259.33 828.76,-259.49 828.70,-259.65 828.69,-259.82 828.69,-259.99 828.73,-260.16 828.78,-260.32 828.88,-260.46 828.97,-260.60 829.11,-260.71 829.25,-260.81 829.41,-260.86 829.57,-260.92 829.74,-260.91 829.91,-260.91 830.07,-260.86 830.24,-260.80 830.37,-260.70 830.51,-260.59 830.60,-260.45 830.70,-260.31 830.74,-260.14 830.79,-259.98 830.77,-259.81 830.76,-259.64 830.70,-259.48 830.64,-259.32 830.52,-259.19 830.41,-259.06 830.27,-258.98 830.12,-258.89 829.95,-258.85 829.78,-258.82 829.61,-258.84 829.44,-258.86 829.29,-258.93 829.14,-259.00 829.01,-259.12 828.89,-259.24 828.81,-259.39 828.73,-259.54 828.73,-259.54 828.73,-259.54 827.99,-261.14 827.24,-262.74 826.79,-263.75 826.34,-264.75 826.27,-265.30 826.19,-265.84 825.95,-266.45 825.72,-267.07 824.72,-268.55 823.72,-270.03 823.16,-270.68 822.60,-271.34 822.06,-272.11 821.52,-272.88 821.09,-274.06 820.66,-275.24 820.21,-275.74 819.77,-276.24 819.66,-276.97 819.55,-277.70 819.29,-278.54 819.02,-279.39 818.30,-280.70 817.59,-282.02 816.72,-283.53 815.85,-285.04 815.28,-285.72 814.72,-286.41 814.14,-287.20 813.55,-287.99 813.00,-288.91 812.44,-289.84 811.85,-290.62 811.26,-291.41 810.69,-292.32 810.13,-293.23 808.68,-294.73 807.24,-296.23 806.17,-297.44 805.10,-298.65 804.20,-299.87 803.30,-301.09 801.88,-302.49 800.46,-303.89 799.37,-304.94 798.29,-305.99 797.41,-307.52 796.54,-309.05 795.25,-311.13 793.96,-313.21 792.48,-315.76 790.99,-318.32 789.85,-320.42 788.71,-322.51 786.73,-325.23 784.75,-327.95 783.22,-330.42 781.69,-332.89 780.39,-334.85 779.10,-336.82 777.63,-339.10 776.15,-341.38 774.94,-342.96 773.73,-344.55 772.47,-346.67 771.22,-348.78 769.81,-351.44 768.41,-354.10 767.46,-356.41 766.51,-358.71 765.03,-361.90 763.54,-365.08 762.42,-368.55 761.30,-372.02 760.17,-374.13 759.03,-376.23 757.88,-378.13 756.74,-380.03 755.62,-382.11 754.51,-384.19 752.59,-386.87 750.67,-389.56 749.30,-391.93 747.94,-394.30 746.21,-396.88 744.49,-399.47 743.60,-401.54 742.72,-403.61 741.37,-406.25 740.02,-408.88 739.20,-411.13 738.39,-413.37 737.26,-416.32 736.13,-419.27 734.23,-423.14 732.33,-427.02 730.95,-429.22 729.57,-431.42 727.88,-433.54 726.18,-435.66 723.64,-437.66 721.10,-439.66 719.80,-440.51 718.49,-441.37 716.77,-441.96 715.05,-442.54 713.52,-443.13 711.98,-443.72 711.14,-443.72 710.29,-443.72 709.07,-443.65 707.85,-443.58 707.25,-443.56 706.65,-443.54 705.97,-443.44 705.29,-443.34 704.24,-442.93 703.19,-442.52 702.50,-442.48 701.82,-442.44 700.95,-442.26 700.08,-442.07 698.67,-441.55 697.27,-441.02 695.60,-440.59 693.93,-440.16 693.14,-440.02 692.35,-439.88 691.11,-439.41 689.88,-438.94 688.81,-438.77 687.75,-438.59 687.16,-438.04 686.57,-437.49 685.91,-436.91 685.24,-436.32 684.49,-435.69 683.74,-435.05 682.89,-434.39 682.04,-433.73 681.44,-432.82 680.85,-431.91 680.13,-430.39 679.41,-428.87 678.59,-427.75 677.76,-426.63 676.57,-424.74 675.38,-422.85 674.11,-420.71 672.84,-418.57 672.15,-417.36 671.46,-416.16 670.68,-415.00 669.90,-413.84 669.50,-412.39 669.09,-410.94 668.19,-409.20 667.29,-407.47 666.75,-406.56 666.21,-405.65 665.67,-404.20 665.13,-402.75 664.61,-400.81 664.09,-398.86 663.65,-397.45 663.22,-396.03 662.93,-394.09 662.64,-392.15 661.99,-390.04 661.34,-387.93 660.58,-384.46 659.82,-380.99 659.54,-379.70 659.27,-378.41 658.68,-377.10 658.08,-375.79 657.44,-374.19 656.80,-372.59 656.09,-371.22 655.38,-369.84 654.45,-368.11 653.53,-366.37 652.22,-364.76 650.91,-363.14 649.34,-360.83 647.76,-358.52 645.61,-355.42 643.47,-352.31 640.74,-348.12 638.02,-343.93 636.20,-340.17 634.39,-336.41 632.43,-332.20 630.47,-327.99 628.18,-322.71 625.89,-317.43 622.81,-310.40 619.73,-303.37 617.15,-298.48 614.56,-293.58 610.81,-286.72 607.06,-279.86 604.41,-274.52 601.75,-269.19 600.13,-265.88 598.51,-262.58 596.28,-258.72 594.05,-254.86 591.10,-249.62 588.15,-244.39 585.82,-240.55 583.50,-236.72 579.62,-232.41 575.75,-228.11 572.91,-225.79 570.07,-223.48 567.20,-221.11 564.33,-218.73 561.50,-217.05 558.67,-215.37 556.77,-214.58 554.87,-213.79 552.74,-212.73 550.60,-211.67 549.21,-210.58 547.82,-209.49 545.50,-208.59 543.18,-207.69 541.63,-207.14 540.08,-206.60 538.68,-206.10 537.28,-205.60 535.56,-205.25 533.84,-204.89 533.09,-204.96 532.34,-205.03 531.32,-205.13 530.30,-205.23 529.56,-205.49 528.81,-205.76 528.07,-206.19 527.33,-206.62 526.08,-206.90 524.82,-207.19 523.57,-207.80 522.33,-208.42 520.95,-209.09 519.58,-209.77 517.90,-210.59 516.22,-211.41 515.47,-211.81 514.71,-212.21 513.42,-212.41 512.12,-212.62 510.74,-213.07 509.36,-213.53 508.41,-213.89 507.45,-214.26 506.17,-214.98 504.88,-215.70 503.98,-215.99 503.07,-216.29 501.80,-216.86 500.53,-217.43 499.03,-218.04 497.53,-218.64 496.38,-219.26 495.24,-219.89 494.09,-220.58 492.95,-221.27 491.96,-222.04 490.97,-222.81 489.96,-223.22 488.94,-223.63 487.47,-224.50 486.00,-225.38 484.80,-225.94 483.60,-226.50 482.23,-227.12 480.85,-227.74 480.20,-228.33 479.54,-228.92 478.72,-229.50 477.89,-230.08 476.53,-230.83 475.16,-231.58 474.61,-232.31 474.06,-233.05 472.58,-234.16 471.10,-235.27 470.04,-236.28 468.98,-237.30 468.05,-238.16 467.13,-239.02 466.57,-239.59 466.02,-240.16 465.49,-240.71 464.95,-241.26 464.11,-242.15 463.26,-243.04 462.00,-243.21 460.73,-243.37 459.44,-243.76 458.15,-244.14 456.49,-244.33 454.83,-244.51 452.53,-244.95 450.24,-245.39 448.82,-245.66 447.40,-245.94 446.18,-245.87 444.97,-245.80 444.40,-245.81 443.84,-245.81 443.26,-245.79 442.68,-245.76 442.03,-245.63 441.38,-245.50 440.47,-245.04 439.57,-244.58 439.05,-244.42 438.54,-244.26 437.92,-243.63 437.30,-243.00 436.63,-242.22 435.96,-241.44 435.18,-240.41 434.39,-239.38 433.98,-238.29 433.56,-237.19 432.61,-235.45 431.65,-233.71 431.02,-232.81 430.38,-231.91 429.64,-230.57 428.90,-229.23 428.60,-228.20 428.31,-227.17 427.65,-225.55 426.98,-223.94 426.26,-222.63 425.53,-221.32 425.26,-220.35 424.98,-219.38 424.41,-217.96 423.85,-216.54 423.27,-214.70 422.69,-212.86 422.11,-210.85 421.52,-208.84 420.91,-206.42 420.30,-204.00 419.63,-200.57 418.95,-197.14 418.15,-193.74 417.34,-190.34 416.22,-185.42 415.09,-180.50 413.98,-175.87 412.86,-171.24 411.79,-168.11 410.71,-164.98 408.98,-161.55 407.26,-158.13 404.75,-153.96 402.24,-149.80 400.20,-147.00 398.17,-144.19 395.77,-141.55 393.36,-138.91 390.71,-135.71 388.05,-132.51 386.46,-131.25 384.87,-129.98 383.60,-129.47 382.34,-128.96 380.90,-128.58 379.46,-128.21 378.66,-128.27 377.86,-128.32 376.74,-128.37 375.61,-128.41 374.48,-128.68 373.35,-128.94 372.79,-129.37 372.23,-129.81 371.40,-130.25 370.57,-130.69 369.31,-131.75 368.06,-132.80 367.38,-133.50 366.70,-134.21 366.07,-134.54 365.45,-134.87 364.98,-135.79 364.52,-136.71 363.99,-137.13 363.46,-137.56 363.31,-138.08 363.15,-138.60 362.62,-139.23 362.08,-139.87 361.59,-140.59 361.09,-141.31 360.82,-141.98 360.55,-142.64 359.66,-143.61 358.77,-144.58 358.42,-145.20 358.08,-145.82 356.96,-146.67 355.84,-147.51 354.85,-148.65 353.85,-149.79 353.15,-150.80 352.45,-151.82 351.50,-152.78 350.54,-153.74 349.84,-154.46 349.15,-155.18 348.28,-156.09 347.40,-156.99 346.10,-158.35 344.79,-159.71 344.07,-160.57 343.35,-161.44 342.49,-162.61 341.63,-163.79 340.30,-165.11 338.98,-166.42 338.17,-167.20 337.36,-167.98 336.18,-169.10 335.00,-170.23 333.93,-171.90 332.86,-173.57 331.72,-174.61 330.59,-175.66 329.57,-177.21 328.56,-178.76 327.75,-180.04 326.93,-181.33 325.71,-182.96 324.48,-184.58 324.07,-185.81 323.66,-187.03 322.57,-188.59 321.49,-190.15 320.55,-192.19 319.60,-194.22 318.96,-195.85 318.32,-197.48 317.57,-199.05 316.82,-200.62 315.82,-202.77 314.83,-204.93 314.05,-206.90 313.28,-208.86 313.14,-209.53 312.99,-210.19 312.45,-211.16 311.91,-212.12 311.46,-213.53 311.00,-214.94 310.74,-216.52 310.48,-218.10 309.82,-219.68 309.16,-221.26 308.42,-223.35 307.68,-225.45 306.66,-227.36 305.65,-229.28 304.78,-230.76 303.90,-232.25 302.67,-234.87 301.44,-237.49 300.06,-239.87 298.67,-242.25 297.77,-243.90 296.88,-245.55 295.45,-247.26 294.02,-248.96 292.21,-251.42 290.41,-253.88 289.33,-255.69 288.25,-257.50 286.37,-259.58 284.49,-261.67 283.21,-263.43 281.93,-265.19 281.30,-266.16 280.66,-267.14 279.85,-268.00 279.05,-268.86 277.92,-270.11 276.79,-271.37 275.69,-272.77 274.60,-274.18 273.66,-275.80 272.72,-277.42 271.98,-278.28 271.23,-279.14 270.33,-280.30 269.44,-281.46 268.72,-282.12 268.01,-282.78 267.21,-284.08 266.41,-285.37 265.30,-286.90 264.18,-288.42 263.04,-289.76 261.91,-291.10 260.83,-292.63 259.76,-294.16 258.79,-295.43 257.83,-296.71 256.26,-298.24 254.69,-299.77 253.31,-301.06 251.93,-302.34 250.24,-303.82 248.55,-305.30 246.86,-306.48 245.18,-307.66 242.72,-308.94 240.25,-310.21 238.22,-310.93 236.19,-311.65 233.80,-312.55 231.41,-313.45 228.04,-314.05 224.67,-314.66 222.00,-314.55 219.33,-314.43 215.39,-314.18 211.44,-313.92 208.31,-313.33 205.18,-312.73 201.56,-311.30 197.94,-309.86 195.58,-308.81 193.23,-307.75 191.46,-306.77 189.69,-305.80 188.02,-305.15 186.36,-304.50 185.26,-303.58 184.17,-302.67 183.27,-302.18 182.37,-301.69 181.80,-301.43 181.24,-301.17 180.50,-300.22 179.77,-299.27 178.18,-297.94 176.59,-296.62 175.11,-295.00 173.62,-293.37 171.67,-291.09 169.71,-288.81 167.43,-285.76 165.14,-282.70 163.56,-280.06 161.99,-277.43 159.86,-274.37 157.74,-271.32 156.62,-269.56 155.50,-267.81 154.33,-265.08 153.16,-262.35 151.20,-259.09 149.25,-255.83 147.03,-252.87 144.82,-249.92 141.90,-245.26 138.98,-240.60 136.71,-236.54 134.45,-232.48 131.47,-227.61 128.49,-222.74 126.89,-219.77 125.28,-216.80 123.79,-213.62 122.30,-210.44 120.34,-206.84 118.38,-203.24 115.35,-198.69 112.32,-194.14 109.08,-189.65 105.84,-185.16 101.31,-178.48 96.78,-171.80 93.82,-166.04 90.85,-160.29 86.96,-152.94 83.08,-145.60 80.12,-139.92 77.16,-134.24 73.29,-126.28 69.42,-118.31 64.16,-107.28 58.90,-96.25 54.28,-88.12 49.67,-79.98 44.21,-70.91 38.75,-61.83 31.35,-50.56 23.94,-39.29 20.43,-33.64 16.91,-28.00 14.05,-23.21 11.18,-18.43 8.30,-13.36 5.42,-8.29 4.01,-5.59 2.61,-2.90 1.64,-1.25 0.66,0.40 0.61,0.47 0.55,0.55 0.48,0.60 0.40,0.66 0.32,0.70 0.23,0.74 0.14,0.76 0.04,0.77 -0.04,0.77 -0.13,0.76 -0.22,0.74 -0.31,0.71 -0.39,0.66 -0.47,0.61 -0.54,0.55 -0.61,0.48 -0.66,0.40 -0.71,0.32 -0.73,0.23 -0.76,0.14 -0.77,0.04 -0.77,-0.04 -0.76,-0.13 -0.74,-0.22 -0.70,-0.31 -0.66,-0.40 -0.66,-0.40 L -0.66,-0.40 Z"/></g><g transform="translate(232.89924163233286 162.41628161673225) rotate(0 255.4768437924592 28.005304751188845)" stroke="none"><path fill="#2f9e44" d="M 0.55,-0.55 Q 0.55,-0.55 1.53,0.44 2.50,1.44 3.28,2.57 4.06,3.71 4.71,4.85 5.37,5.99 5.95,6.76 6.54,7.52 7.42,8.50 8.31,9.48 9.40,11.63 10.50,13.77 11.27,15.31 12.03,16.85 12.69,18.16 13.34,19.47 13.93,20.32 14.51,21.17 15.13,22.59 15.74,24.01 16.03,24.95 16.32,25.90 16.73,26.90 17.15,27.91 17.39,28.72 17.64,29.53 18.02,30.83 18.40,32.12 18.61,33.04 18.81,33.97 18.88,35.05 18.94,36.13 18.96,37.91 18.98,39.68 18.98,41.09 18.98,42.49 18.98,43.75 18.98,45.00 18.99,45.93 19.00,46.86 18.65,47.44 18.30,48.02 18.25,49.12 18.21,50.22 18.14,51.88 18.07,53.53 18.04,54.58 18.00,55.62 17.63,57.44 17.27,59.27 17.11,60.64 16.96,62.01 16.54,63.32 16.13,64.63 16.29,66.35 16.46,68.07 16.53,69.53 16.59,70.99 16.94,73.20 17.29,75.42 17.76,77.34 18.23,79.26 19.07,81.01 19.90,82.76 20.89,84.13 21.89,85.51 22.66,86.80 23.44,88.09 24.39,89.24 25.35,90.40 26.11,91.59 26.88,92.79 27.83,93.91 28.78,95.03 30.82,97.14 32.86,99.26 34.39,100.82 35.92,102.39 37.89,104.36 39.85,106.34 41.34,107.84 42.83,109.34 44.09,110.27 45.35,111.21 46.95,113.33 48.55,115.44 50.15,116.93 51.75,118.42 53.43,120.06 55.12,121.70 56.16,122.72 57.21,123.75 58.27,124.48 59.33,125.21 60.15,125.87 60.97,126.53 61.97,127.48 62.97,128.43 63.95,128.76 64.93,129.10 65.79,129.60 66.66,130.11 67.37,130.64 68.09,131.18 69.26,131.70 70.44,132.22 71.35,132.82 72.27,133.42 72.91,133.58 73.54,133.74 74.28,134.19 75.01,134.64 76.24,135.18 77.46,135.72 78.07,136.24 78.69,136.75 79.86,137.36 81.02,137.96 81.39,138.59 81.75,139.21 82.39,139.82 83.03,140.42 83.63,140.99 84.24,141.55 85.05,141.95 85.86,142.35 86.42,142.89 86.98,143.43 87.72,143.96 88.46,144.49 89.05,144.66 89.64,144.84 90.41,145.34 91.18,145.84 91.82,146.39 92.47,146.95 93.07,147.52 93.66,148.08 94.23,148.65 94.80,149.21 95.68,149.37 96.56,149.54 97.35,149.99 98.13,150.44 99.06,151.37 99.98,152.30 100.68,153.01 101.38,153.72 102.01,154.34 102.64,154.97 103.25,155.57 103.86,156.17 104.24,156.88 104.62,157.59 104.98,158.03 105.35,158.47 106.20,159.22 107.06,159.98 107.70,160.40 108.34,160.83 109.05,161.36 109.75,161.88 110.09,162.53 110.44,163.17 111.30,163.66 112.15,164.15 112.54,164.87 112.93,165.59 113.51,166.35 114.09,167.12 114.50,167.96 114.90,168.80 115.08,169.52 115.27,170.25 116.03,171.19 116.79,172.13 117.11,172.86 117.43,173.60 117.77,174.03 118.11,174.45 118.58,175.00 119.06,175.54 119.39,176.28 119.72,177.02 120.07,177.46 120.41,177.89 120.69,178.63 120.96,179.36 121.55,180.51 122.15,181.67 122.25,182.34 122.36,183.02 122.88,184.11 123.41,185.21 123.89,186.19 124.37,187.17 125.14,187.61 125.91,188.04 126.46,188.59 127.01,189.13 127.75,189.67 128.48,190.20 129.22,190.82 129.96,191.44 131.22,191.68 132.49,191.93 133.18,191.95 133.88,191.98 134.50,191.98 135.12,191.98 135.72,191.97 136.32,191.96 137.40,192.37 138.48,192.78 139.12,192.89 139.75,193.00 140.96,193.11 142.16,193.22 143.03,193.25 143.90,193.28 144.92,193.33 145.93,193.38 147.26,193.10 148.59,192.82 149.81,192.39 151.03,191.97 152.29,191.77 153.56,191.57 155.02,191.18 156.48,190.79 158.09,190.30 159.70,189.81 161.38,189.28 163.05,188.74 164.39,188.20 165.74,187.65 166.91,186.80 168.08,185.95 169.30,185.22 170.51,184.50 171.38,184.14 172.25,183.78 173.17,183.06 174.09,182.34 175.16,181.37 176.24,180.40 177.03,179.66 177.82,178.92 178.86,178.24 179.90,177.56 180.62,176.96 181.33,176.36 182.65,175.44 183.98,174.52 184.80,173.54 185.63,172.56 186.97,170.51 188.31,168.46 189.55,166.58 190.78,164.71 191.62,162.97 192.45,161.23 193.16,160.11 193.87,159.00 194.13,157.97 194.38,156.94 194.84,155.46 195.30,153.99 195.85,152.98 196.39,151.97 196.58,151.00 196.77,150.03 197.20,148.57 197.63,147.10 197.80,145.88 197.97,144.66 198.39,143.41 198.81,142.15 198.97,141.04 199.13,139.93 199.15,139.12 199.18,138.32 199.16,137.65 199.14,136.99 199.11,136.38 199.07,135.77 199.08,134.85 199.09,133.93 199.48,132.76 199.87,131.60 199.97,130.87 200.07,130.14 200.14,129.21 200.21,128.28 200.26,127.22 200.32,126.16 200.35,124.73 200.38,123.29 200.38,122.35 200.37,121.41 200.39,120.02 200.41,118.64 200.40,117.72 200.38,116.80 200.40,115.77 200.41,114.73 200.09,114.11 199.76,113.48 199.55,112.76 199.34,112.03 199.28,111.03 199.22,110.03 199.16,109.29 199.10,108.55 199.13,107.51 199.16,106.47 199.52,105.83 199.87,105.19 199.92,104.56 199.96,103.93 199.99,103.29 200.02,102.65 200.07,101.73 200.12,100.82 200.11,100.09 200.10,99.36 200.08,98.73 200.06,98.09 200.04,97.50 200.02,96.90 200.00,96.28 199.99,95.65 200.38,94.81 200.77,93.97 201.28,93.12 201.79,92.27 201.94,91.65 202.10,91.03 202.57,90.25 203.05,89.47 203.59,88.82 204.14,88.16 204.69,87.57 205.25,86.98 205.85,85.85 206.45,84.72 207.00,84.11 207.54,83.50 208.10,82.93 208.65,82.36 208.86,81.41 209.06,80.46 209.93,79.65 210.81,78.84 211.49,77.74 212.18,76.64 212.83,76.29 213.48,75.93 214.18,75.21 214.89,74.49 215.56,74.35 216.22,74.22 216.89,74.18 217.55,74.15 218.43,74.54 219.31,74.93 219.93,75.45 220.56,75.97 221.20,76.10 221.85,76.23 222.72,76.72 223.59,77.22 224.29,77.78 224.99,78.34 225.90,79.29 226.82,80.25 227.51,80.97 228.21,81.70 228.73,81.88 229.25,82.07 230.53,82.92 231.82,83.78 232.69,84.50 233.57,85.21 234.29,85.84 235.01,86.46 235.66,87.05 236.31,87.64 236.93,88.63 237.55,89.62 238.05,89.87 238.55,90.11 239.18,90.61 239.82,91.12 240.42,91.66 241.02,92.20 241.82,92.74 242.62,93.27 243.37,93.86 244.12,94.46 244.65,94.60 245.18,94.74 245.90,95.21 246.62,95.69 247.25,96.22 247.88,96.75 248.47,97.31 249.07,97.86 249.65,98.42 250.23,98.99 251.01,99.53 251.79,100.07 252.46,100.28 253.13,100.49 253.65,101.04 254.17,101.59 254.81,101.99 255.45,102.39 256.15,102.98 256.86,103.56 257.49,104.13 258.13,104.71 258.72,105.28 259.31,105.84 260.44,106.44 261.57,107.04 262.82,108.07 264.07,109.11 264.61,109.73 265.15,110.35 265.71,110.94 266.27,111.53 266.86,112.56 267.45,113.58 267.99,114.26 268.52,114.95 268.87,115.69 269.21,116.44 269.33,117.50 269.44,118.56 269.10,119.78 268.76,120.99 268.26,121.88 267.76,122.78 266.80,123.52 265.83,124.26 265.57,124.81 265.32,125.35 264.75,125.75 264.18,126.15 263.72,127.28 263.26,128.42 262.64,128.96 262.01,129.50 261.57,130.16 261.13,130.82 260.53,131.53 259.94,132.23 259.33,133.43 258.72,134.64 258.16,136.02 257.61,137.41 257.06,138.19 256.51,138.97 256.34,139.75 256.17,140.53 256.11,141.23 256.05,141.92 255.61,142.99 255.18,144.06 255.07,144.74 254.95,145.42 254.92,145.97 254.88,146.52 255.42,147.55 255.96,148.59 257.12,150.05 258.29,151.51 259.44,152.82 260.60,154.12 261.41,155.01 262.23,155.91 262.90,156.60 263.58,157.29 264.75,157.86 265.91,158.43 267.72,159.02 269.52,159.60 270.91,159.85 272.30,160.10 273.46,159.89 274.62,159.67 276.18,159.58 277.75,159.48 279.33,159.13 280.91,158.77 282.63,158.61 284.35,158.45 286.61,157.43 288.87,156.40 290.87,155.62 292.87,154.84 294.31,153.88 295.75,152.93 298.08,151.83 300.40,150.73 301.98,149.64 303.56,148.56 305.59,147.41 307.62,146.26 308.78,145.47 309.94,144.68 311.42,143.67 312.91,142.67 313.81,141.64 314.72,140.61 315.83,139.78 316.94,138.95 318.33,137.34 319.72,135.74 320.66,134.71 321.61,133.67 322.67,132.57 323.74,131.47 324.48,130.39 325.22,129.30 325.90,128.47 326.57,127.64 327.16,126.94 327.76,126.23 328.33,125.59 328.90,124.94 329.89,124.31 330.87,123.68 331.88,122.82 332.89,121.96 333.24,121.30 333.58,120.65 334.81,119.32 336.05,117.98 337.22,116.78 338.39,115.58 339.60,114.70 340.80,113.83 342.57,112.19 344.35,110.55 345.81,109.49 347.27,108.43 349.86,106.67 352.44,104.91 354.53,103.51 356.61,102.10 358.13,100.87 359.65,99.63 361.63,98.11 363.60,96.59 364.76,95.62 365.92,94.66 367.10,93.89 368.29,93.13 370.40,91.51 372.52,89.90 374.15,89.16 375.78,88.43 377.16,88.12 378.54,87.80 380.13,87.67 381.73,87.54 382.72,87.47 383.72,87.40 385.14,87.38 386.56,87.36 387.90,87.70 389.24,88.03 391.72,88.49 394.20,88.95 395.90,89.15 397.60,89.34 399.30,89.43 400.99,89.51 402.76,89.88 404.53,90.25 405.88,90.41 407.24,90.56 408.47,90.62 409.69,90.69 410.87,90.71 412.05,90.74 413.21,90.75 414.37,90.77 415.91,91.11 417.46,91.45 418.40,91.57 419.33,91.68 420.37,91.75 421.40,91.81 422.50,91.84 423.59,91.87 424.72,91.88 425.84,91.89 427.57,91.58 429.30,91.26 430.67,90.81 432.04,90.37 432.51,89.86 432.99,89.35 433.65,89.02 434.32,88.68 434.78,88.28 435.24,87.88 435.76,87.40 436.27,86.91 436.78,85.87 437.28,84.83 437.90,83.94 438.53,83.06 439.43,81.44 440.33,79.82 440.71,78.84 441.08,77.86 441.24,76.83 441.40,75.81 441.82,74.32 442.23,72.83 442.40,71.28 442.56,69.73 442.64,68.09 442.72,66.44 442.75,65.42 442.78,64.40 442.45,63.77 442.12,63.15 441.92,62.44 441.72,61.74 441.36,61.29 441.00,60.84 440.21,59.58 439.43,58.32 439.04,57.39 438.65,56.46 438.22,55.88 437.79,55.29 436.76,54.77 435.73,54.24 434.96,54.02 434.19,53.80 433.56,53.74 432.93,53.68 431.61,53.25 430.29,52.82 428.84,52.65 427.39,52.48 426.43,52.41 425.46,52.34 423.99,51.95 422.52,51.56 421.53,51.04 420.53,50.52 419.86,50.39 419.20,50.25 418.31,50.18 417.42,50.11 416.69,50.11 415.97,50.11 414.88,49.71 413.80,49.32 412.49,49.17 411.19,49.02 410.16,48.59 409.13,48.17 408.46,48.06 407.78,47.95 407.02,47.53 406.25,47.11 405.48,46.99 404.70,46.87 403.58,46.42 402.46,45.96 401.61,45.43 400.75,44.89 400.04,44.34 399.33,43.78 398.69,43.22 398.05,42.66 397.44,42.08 396.82,41.51 396.44,40.81 396.06,40.11 395.89,39.44 395.72,38.76 395.64,38.13 395.56,37.51 395.51,36.91 395.47,36.32 395.44,35.73 395.41,35.15 395.40,34.57 395.38,34.00 395.45,33.00 395.52,32.00 395.93,31.31 396.35,30.62 396.79,29.92 397.23,29.22 397.37,28.65 397.51,28.08 398.07,27.26 398.62,26.44 399.70,26.02 400.77,25.59 401.33,25.22 401.89,24.84 402.63,24.58 403.38,24.31 403.84,23.96 404.30,23.61 405.77,23.42 407.24,23.23 408.34,22.89 409.45,22.56 410.34,22.37 411.22,22.17 412.17,21.83 413.11,21.49 413.92,21.28 414.73,21.06 415.25,20.69 415.77,20.32 417.22,20.13 418.66,19.94 419.55,19.85 420.43,19.77 421.81,19.77 423.18,19.77 423.96,19.46 424.73,19.14 425.87,19.00 427.00,18.85 428.15,18.81 429.29,18.77 430.24,19.06 431.19,19.36 432.09,19.47 432.99,19.58 433.73,19.60 434.46,19.61 435.09,19.59 435.73,19.58 437.39,19.96 439.05,20.35 440.74,20.86 442.42,21.37 443.52,21.95 444.62,22.53 445.77,23.47 446.92,24.40 448.06,25.46 449.19,26.52 450.00,27.29 450.80,28.07 451.49,28.72 452.18,29.36 452.84,30.36 453.49,31.37 454.40,32.75 455.31,34.14 456.01,35.04 456.71,35.94 457.69,37.69 458.68,39.43 459.40,40.46 460.12,41.49 461.09,42.93 462.06,44.37 463.16,47.01 464.26,49.65 465.04,51.40 465.82,53.14 466.49,55.24 467.16,57.33 467.45,58.91 467.75,60.48 467.87,61.82 467.99,63.16 468.04,64.39 468.09,65.61 468.12,67.46 468.14,69.30 467.81,71.12 467.49,72.95 467.01,74.40 466.54,75.85 466.00,77.13 465.47,78.41 464.91,79.61 464.35,80.81 463.79,81.98 463.22,83.15 461.98,85.31 460.75,87.47 458.88,89.73 457.01,92.00 455.57,93.61 454.12,95.23 452.49,96.60 450.86,97.97 448.51,99.54 446.16,101.12 444.19,102.44 442.22,103.76 441.06,104.63 439.91,105.51 437.03,106.59 434.15,107.67 432.27,108.12 430.38,108.58 426.91,108.77 423.44,108.97 421.00,109.05 418.55,109.13 416.86,109.16 415.16,109.19 414.11,109.21 413.06,109.23 412.28,109.29 411.51,109.34 410.19,109.33 408.87,109.32 407.00,109.31 405.13,109.30 403.67,109.29 402.22,109.28 399.96,109.28 397.70,109.27 395.75,109.27 393.81,109.27 392.05,109.59 390.30,109.91 388.91,110.36 387.53,110.82 386.56,111.05 385.60,111.28 384.53,111.35 383.46,111.42 381.93,112.29 380.39,113.16 379.24,113.67 378.09,114.19 377.32,114.72 376.56,115.25 375.21,116.13 373.87,117.02 372.62,117.73 371.37,118.44 370.47,118.79 369.58,119.15 368.99,119.59 368.40,120.03 367.42,120.55 366.43,121.06 365.79,121.84 365.15,122.63 363.83,124.00 362.50,125.37 361.29,126.60 360.07,127.83 358.56,129.34 357.06,130.84 356.12,132.11 355.18,133.37 354.05,134.30 352.93,135.23 351.88,136.85 350.84,138.46 350.40,139.76 349.96,141.06 349.44,142.94 348.91,144.82 348.69,145.93 348.47,147.04 348.38,148.15 348.29,149.25 348.25,150.38 348.21,151.50 348.22,152.26 348.24,153.03 349.14,154.18 350.05,155.33 351.69,156.49 353.34,157.64 355.05,158.82 356.76,159.99 359.37,160.78 361.97,161.57 364.02,161.59 366.06,161.60 369.56,161.29 373.06,160.97 375.52,160.51 377.98,160.06 379.96,159.22 381.93,158.39 384.79,157.36 387.65,156.34 389.50,155.58 391.35,154.83 393.48,154.16 395.62,153.50 397.45,152.59 399.28,151.67 401.36,150.31 403.44,148.95 407.30,146.39 411.15,143.83 414.76,141.43 418.37,139.02 423.86,135.70 429.35,132.37 432.99,129.98 436.62,127.59 439.47,125.59 442.33,123.59 443.83,122.11 445.34,120.64 447.00,119.31 448.67,117.99 450.98,115.50 453.28,113.01 454.61,111.61 455.93,110.21 457.51,108.92 459.09,107.64 461.42,106.10 463.75,104.57 465.71,103.27 467.67,101.96 469.50,100.75 471.32,99.54 473.74,98.04 476.17,96.53 477.82,95.25 479.48,93.98 480.51,93.11 481.55,92.24 482.31,91.54 483.07,90.84 484.05,89.90 485.02,88.95 485.73,87.93 486.44,86.92 487.41,85.48 488.39,84.05 489.48,82.76 490.57,81.46 492.34,79.28 494.10,77.11 495.15,75.24 496.21,73.37 497.68,71.53 499.15,69.68 500.74,67.30 502.32,64.92 503.67,63.21 505.03,61.51 505.89,59.86 506.76,58.21 507.46,56.84 508.17,55.46 508.43,54.58 508.70,53.70 509.15,52.90 509.61,52.10 509.77,50.95 509.93,49.80 510.02,48.63 510.11,47.45 510.15,46.30 510.20,45.14 510.17,44.34 510.15,43.53 509.55,42.35 508.95,41.16 508.05,39.63 507.14,38.10 505.75,35.10 504.35,32.10 503.12,29.88 501.90,27.65 500.37,24.03 498.84,20.42 497.87,17.90 496.90,15.38 495.52,13.05 494.15,10.71 492.90,8.72 491.66,6.73 490.81,5.57 489.97,4.41 489.28,3.60 488.60,2.78 488.21,2.05 487.82,1.32 487.11,0.45 486.39,-0.41 485.42,-1.46 484.45,-2.51 483.71,-3.29 482.98,-4.07 482.31,-4.72 481.65,-5.36 481.02,-6.35 480.39,-7.35 479.86,-7.61 479.33,-7.88 478.66,-8.81 477.99,-9.74 477.44,-10.37 476.88,-11.00 475.70,-12.07 474.51,-13.15 473.09,-14.22 471.68,-15.29 470.32,-16.65 468.96,-18.02 468.06,-18.93 467.17,-19.84 466.14,-20.88 465.10,-21.93 464.38,-22.31 463.65,-22.69 463.16,-23.29 462.67,-23.90 462.21,-24.37 461.76,-24.85 461.23,-25.38 460.70,-25.91 460.15,-26.47 459.59,-27.02 459.00,-28.03 458.41,-29.04 457.88,-29.70 457.34,-30.37 456.78,-30.97 456.22,-31.58 455.64,-32.16 455.07,-32.75 454.70,-33.46 454.34,-34.17 453.96,-35.04 453.59,-35.92 452.77,-36.81 451.96,-37.71 451.88,-39.41 451.80,-41.12 451.49,-43.03 451.17,-44.94 451.04,-46.47 450.91,-48.00 450.55,-49.91 450.18,-51.83 450.02,-53.35 449.87,-54.87 449.81,-56.18 449.75,-57.49 449.73,-59.37 449.70,-61.24 449.70,-62.37 449.69,-63.49 450.03,-65.03 450.36,-66.57 450.50,-67.81 450.63,-69.05 451.03,-71.26 451.42,-73.47 451.92,-75.41 452.42,-77.35 452.63,-78.46 452.83,-79.58 452.92,-81.02 453.00,-82.45 453.38,-83.80 453.76,-85.15 453.91,-86.63 454.05,-88.11 454.47,-89.17 454.88,-90.23 455.03,-91.56 455.18,-92.88 455.25,-94.12 455.33,-95.37 456.05,-96.69 456.78,-98.01 457.01,-98.80 457.25,-99.59 457.72,-100.63 458.19,-101.67 459.07,-103.12 459.94,-104.57 460.66,-105.52 461.37,-106.47 461.96,-107.79 462.55,-109.11 463.17,-110.07 463.78,-111.02 463.95,-111.69 464.13,-112.36 464.57,-113.10 465.02,-113.85 465.54,-114.50 466.06,-115.15 466.98,-116.06 467.89,-116.96 468.18,-117.61 468.48,-118.26 469.42,-119.00 470.36,-119.75 471.01,-120.34 471.67,-120.94 472.34,-121.26 473.01,-121.59 473.65,-122.24 474.28,-122.90 474.69,-123.74 475.11,-124.58 475.78,-125.47 476.45,-126.37 476.85,-127.41 477.24,-128.46 477.81,-129.22 478.38,-129.98 478.55,-130.94 478.72,-131.90 478.74,-132.98 478.76,-134.06 478.76,-136.01 478.75,-137.95 478.78,-138.16 478.82,-138.38 478.92,-138.57 479.02,-138.76 479.18,-138.91 479.34,-139.06 479.53,-139.15 479.73,-139.24 479.95,-139.26 480.16,-139.28 480.37,-139.24 480.58,-139.19 480.77,-139.08 480.95,-138.97 481.09,-138.80 481.23,-138.63 481.31,-138.43 481.39,-138.23 481.40,-138.02 481.42,-137.80 481.36,-137.59 481.30,-137.38 481.18,-137.20 481.05,-137.02 480.88,-136.89 480.71,-136.76 480.50,-136.69 480.30,-136.63 480.08,-136.63 479.87,-136.63 479.66,-136.70 479.46,-136.77 479.28,-136.90 479.11,-137.03 478.99,-137.21 478.87,-137.39 478.81,-137.60 478.75,-137.81 478.77,-138.02 478.78,-138.24 478.86,-138.44 478.94,-138.64 479.08,-138.81 479.22,-138.97 479.41,-139.08 479.59,-139.19 479.80,-139.24 480.02,-139.28 480.23,-139.26 480.45,-139.24 480.64,-139.14 480.84,-139.05 481.00,-138.90 481.15,-138.75 481.25,-138.56 481.35,-138.37 481.39,-138.16 481.42,-137.94 481.42,-137.94 481.42,-137.94 481.39,-135.97 481.36,-133.99 481.33,-133.39 481.30,-132.79 481.24,-132.16 481.18,-131.53 481.05,-130.84 480.92,-130.14 480.61,-129.38 480.31,-128.61 479.88,-128.00 479.45,-127.39 479.12,-126.57 478.78,-125.75 478.10,-125.06 477.43,-124.37 476.87,-123.36 476.30,-122.35 475.54,-121.70 474.78,-121.05 474.34,-120.52 473.91,-119.98 473.35,-119.80 472.79,-119.62 472.09,-119.02 471.40,-118.41 470.71,-117.89 470.02,-117.38 469.57,-116.59 469.12,-115.81 468.28,-114.89 467.44,-113.97 466.93,-113.43 466.43,-112.88 466.00,-112.36 465.58,-111.84 465.25,-111.07 464.92,-110.30 464.35,-109.43 463.78,-108.55 463.13,-107.11 462.47,-105.66 461.80,-104.76 461.14,-103.85 460.31,-102.47 459.49,-101.08 459.06,-100.10 458.63,-99.11 458.27,-98.23 457.92,-97.36 457.27,-96.30 456.62,-95.23 456.56,-93.98 456.49,-92.72 456.30,-91.24 456.11,-89.75 455.74,-88.86 455.36,-87.96 455.20,-86.38 455.03,-84.79 454.68,-83.58 454.32,-82.36 454.23,-80.85 454.14,-79.34 453.92,-78.18 453.71,-77.01 453.23,-75.12 452.74,-73.23 452.36,-71.07 451.98,-68.90 451.84,-67.59 451.70,-66.27 451.39,-64.88 451.08,-63.50 451.10,-62.38 451.12,-61.27 451.16,-59.42 451.19,-57.57 451.28,-56.30 451.36,-55.04 451.54,-53.59 451.72,-52.14 452.14,-50.16 452.57,-48.17 452.75,-46.72 452.94,-45.27 453.36,-43.25 453.77,-41.24 453.92,-39.58 454.07,-37.93 454.67,-37.38 455.28,-36.84 455.89,-35.45 456.50,-34.06 457.06,-33.45 457.63,-32.85 458.21,-32.19 458.79,-31.53 459.39,-30.78 459.99,-30.02 460.53,-29.23 461.07,-28.45 461.61,-27.87 462.16,-27.28 462.69,-26.69 463.22,-26.10 463.86,-25.06 464.51,-24.01 465.33,-23.51 466.15,-23.00 467.20,-21.98 468.26,-20.95 469.19,-20.08 470.11,-19.21 471.49,-17.92 472.86,-16.63 473.72,-15.92 474.57,-15.21 475.24,-14.73 475.92,-14.26 476.37,-13.60 476.82,-12.94 477.47,-12.53 478.13,-12.12 478.72,-11.39 479.31,-10.67 479.80,-9.94 480.29,-9.22 480.93,-8.69 481.57,-8.16 482.15,-7.28 482.72,-6.40 483.35,-5.72 483.98,-5.04 484.74,-4.27 485.50,-3.49 486.51,-2.42 487.53,-1.35 488.38,-0.33 489.23,0.69 489.43,1.32 489.63,1.95 490.33,2.79 491.04,3.63 491.91,4.83 492.79,6.02 494.05,8.03 495.31,10.03 496.73,12.46 498.16,14.89 499.13,17.39 500.10,19.89 501.60,23.43 503.11,26.98 504.37,29.24 505.63,31.51 507.00,34.43 508.38,37.36 509.34,38.93 510.30,40.51 511.00,42.00 511.70,43.48 511.65,44.33 511.60,45.18 511.57,46.37 511.54,47.55 511.47,48.79 511.40,50.02 511.17,51.45 510.94,52.88 510.48,53.52 510.02,54.15 509.68,55.11 509.34,56.06 508.63,57.44 507.92,58.83 506.99,60.58 506.06,62.33 504.74,63.99 503.42,65.64 501.80,68.08 500.18,70.51 498.76,72.26 497.35,74.02 496.24,75.98 495.13,77.93 493.35,80.12 491.58,82.31 490.53,83.55 489.48,84.79 488.50,86.24 487.52,87.68 486.74,88.79 485.95,89.90 484.96,90.86 483.96,91.83 483.18,92.54 482.39,93.24 481.34,94.13 480.28,95.02 478.57,96.33 476.86,97.65 474.45,99.14 472.04,100.64 470.22,101.85 468.40,103.06 466.44,104.36 464.47,105.66 462.20,107.16 459.92,108.66 458.40,109.89 456.89,111.11 455.57,112.51 454.24,113.91 451.87,116.47 449.49,119.02 447.87,120.30 446.25,121.58 444.67,123.12 443.08,124.66 440.21,126.67 437.34,128.68 433.69,131.09 430.03,133.49 424.57,136.81 419.10,140.12 415.49,142.52 411.88,144.92 408.02,147.49 404.16,150.05 402.02,151.45 399.87,152.85 397.94,153.81 396.01,154.76 393.93,155.40 391.85,156.05 389.97,156.82 388.09,157.58 385.27,158.60 382.45,159.61 380.34,160.49 378.23,161.37 375.71,161.84 373.18,162.31 369.61,162.63 366.04,162.95 363.82,162.92 361.59,162.88 358.79,162.02 355.99,161.15 354.26,159.97 352.52,158.79 350.71,157.50 348.90,156.21 347.84,154.70 346.79,153.19 346.84,152.32 346.89,151.46 346.93,150.30 346.97,149.14 347.07,147.96 347.17,146.79 347.40,145.63 347.63,144.47 348.17,142.55 348.70,140.63 349.21,139.18 349.71,137.73 350.89,135.97 352.06,134.20 353.07,133.38 354.09,132.55 355.08,131.21 356.07,129.87 357.57,128.36 359.06,126.84 360.26,125.61 361.46,124.37 362.73,123.02 364.00,121.67 364.82,120.69 365.65,119.72 366.57,119.18 367.48,118.65 368.27,118.18 369.06,117.71 369.86,117.46 370.67,117.21 371.86,116.51 373.06,115.81 374.39,114.90 375.71,114.00 376.59,113.42 377.46,112.84 378.63,112.28 379.80,111.73 380.87,111.28 381.94,110.84 382.58,110.46 383.22,110.08 384.26,109.98 385.30,109.88 386.21,109.71 387.11,109.55 388.59,109.06 390.06,108.58 391.93,108.25 393.80,107.91 395.75,107.90 397.70,107.90 399.96,107.89 402.22,107.89 403.67,107.88 405.13,107.87 407.00,107.86 408.87,107.85 410.18,107.83 411.50,107.81 412.27,107.86 413.04,107.90 414.09,107.89 415.13,107.88 416.82,107.85 418.51,107.81 420.94,107.73 423.37,107.65 426.73,107.48 430.08,107.30 431.89,106.87 433.70,106.44 436.41,105.45 439.13,104.46 440.31,103.56 441.49,102.66 443.46,101.35 445.43,100.03 447.72,98.49 450.02,96.96 451.58,95.65 453.15,94.35 454.57,92.76 456.00,91.17 457.81,88.99 459.61,86.81 460.82,84.69 462.04,82.58 462.60,81.42 463.16,80.26 463.71,79.08 464.25,77.90 464.77,76.67 465.29,75.44 465.74,74.08 466.19,72.71 466.51,71.01 466.82,69.31 466.80,67.49 466.78,65.67 466.73,64.47 466.68,63.28 466.56,62.00 466.45,60.72 466.18,59.23 465.90,57.73 465.25,55.71 464.60,53.68 463.82,51.92 463.03,50.16 461.99,47.64 460.95,45.12 459.98,43.69 459.01,42.26 458.25,41.18 457.49,40.10 456.56,38.45 455.62,36.79 454.88,35.85 454.14,34.92 453.21,33.54 452.28,32.16 451.71,31.29 451.14,30.42 450.49,29.75 449.83,29.09 449.03,28.33 448.22,27.58 447.11,26.57 445.99,25.56 444.95,24.73 443.91,23.91 442.94,23.42 441.97,22.94 440.33,22.51 438.69,22.07 437.17,21.78 435.65,21.50 434.99,21.43 434.33,21.37 433.56,21.27 432.79,21.18 431.70,21.03 430.61,20.89 429.97,20.58 429.32,20.27 428.27,20.35 427.22,20.43 426.27,20.58 425.32,20.72 424.29,21.09 423.25,21.46 421.92,21.52 420.59,21.59 419.74,21.65 418.90,21.71 417.82,21.86 416.74,22.01 415.95,22.44 415.17,22.87 414.47,23.00 413.76,23.12 412.68,23.58 411.61,24.05 410.83,24.19 410.05,24.34 408.79,24.81 407.53,25.29 406.53,25.44 405.53,25.59 404.31,26.17 403.09,26.74 402.28,27.25 401.48,27.75 400.61,28.26 399.75,28.78 399.50,29.56 399.24,30.35 398.51,31.36 397.77,32.38 397.84,33.18 397.92,33.98 397.90,34.55 397.89,35.11 397.88,35.67 397.87,36.23 397.87,37.30 397.88,38.36 398.04,39.26 398.20,40.17 398.76,40.73 399.31,41.28 399.89,41.84 400.47,42.39 401.08,42.92 401.68,43.45 402.38,43.91 403.07,44.38 404.06,44.72 405.04,45.06 406.12,45.29 407.20,45.51 407.70,45.88 408.21,46.26 408.97,46.48 409.74,46.71 410.56,47.07 411.38,47.43 412.87,47.56 414.36,47.70 415.22,48.00 416.08,48.30 416.83,48.37 417.57,48.45 418.61,48.54 419.65,48.64 420.43,48.92 421.21,49.19 422.06,49.63 422.91,50.08 424.25,50.40 425.58,50.73 426.57,50.79 427.56,50.86 429.17,51.01 430.78,51.15 432.01,51.48 433.24,51.81 433.98,51.97 434.72,52.14 435.61,52.44 436.51,52.75 437.86,53.47 439.21,54.20 439.73,55.00 440.26,55.80 440.56,56.58 440.87,57.37 441.73,58.60 442.59,59.83 443.00,60.59 443.41,61.35 443.48,61.96 443.54,62.57 443.85,63.48 444.15,64.39 444.12,65.45 444.09,66.50 444.02,68.19 443.95,69.88 443.78,71.54 443.61,73.20 443.23,74.61 442.85,76.03 442.68,77.20 442.51,78.38 442.13,79.48 441.74,80.57 440.84,82.30 439.94,84.02 439.42,84.81 438.90,85.60 438.26,86.97 437.61,88.33 436.98,88.86 436.35,89.39 435.15,89.95 433.96,90.51 433.22,91.06 432.49,91.61 431.02,92.09 429.54,92.58 427.69,92.91 425.83,93.24 424.70,93.23 423.56,93.23 422.44,93.20 421.32,93.18 420.22,93.12 419.13,93.07 418.15,92.90 417.17,92.73 415.76,92.41 414.35,92.08 413.18,92.07 412.02,92.06 410.82,92.03 409.62,92.00 408.36,91.94 407.09,91.87 405.67,91.71 404.26,91.55 402.59,91.19 400.93,90.84 399.19,90.75 397.45,90.67 395.70,90.47 393.96,90.27 391.43,89.80 388.91,89.34 387.74,89.03 386.57,88.73 385.18,88.75 383.79,88.78 382.81,88.82 381.83,88.85 380.33,88.97 378.83,89.09 377.57,89.36 376.30,89.64 374.81,90.29 373.31,90.95 371.16,92.59 369.00,94.24 367.89,94.96 366.77,95.68 365.59,96.66 364.42,97.64 362.45,99.16 360.49,100.67 358.93,101.94 357.36,103.22 355.28,104.62 353.21,106.03 350.64,107.78 348.08,109.53 346.69,110.55 345.30,111.57 343.47,113.27 341.64,114.98 340.54,115.78 339.45,116.59 338.31,117.80 337.17,119.01 336.05,120.25 334.94,121.50 334.40,122.27 333.86,123.05 332.78,124.00 331.70,124.95 330.87,125.50 330.05,126.05 329.44,126.63 328.84,127.22 328.22,127.85 327.60,128.49 326.95,129.27 326.30,130.05 325.49,131.22 324.68,132.38 323.63,133.47 322.58,134.56 321.64,135.58 320.71,136.61 319.22,138.30 317.73,140.00 316.71,140.74 315.70,141.49 314.67,142.62 313.65,143.76 312.17,144.76 310.68,145.76 309.47,146.59 308.27,147.41 306.29,148.53 304.31,149.64 302.63,150.78 300.96,151.93 298.72,152.98 296.48,154.04 294.92,155.05 293.36,156.07 291.38,156.85 289.41,157.62 286.95,158.70 284.50,159.78 282.85,159.93 281.21,160.08 279.52,160.46 277.83,160.84 276.35,160.94 274.86,161.03 273.47,161.26 272.09,161.49 270.58,161.23 269.08,160.97 267.17,160.37 265.26,159.77 263.88,159.08 262.49,158.39 261.80,157.68 261.11,156.96 260.26,156.09 259.40,155.21 258.18,153.91 256.95,152.61 255.61,151.03 254.27,149.45 253.55,147.96 252.83,146.48 252.93,145.75 253.02,145.01 253.22,144.21 253.42,143.40 253.72,142.53 254.02,141.66 254.14,140.88 254.26,140.10 254.52,138.97 254.78,137.83 255.23,137.18 255.68,136.53 256.02,135.68 256.36,134.82 256.64,134.10 256.93,133.38 257.31,132.90 257.69,132.43 258.03,131.70 258.37,130.96 258.90,130.32 259.43,129.68 260.46,128.55 261.49,127.41 261.85,126.59 262.22,125.77 263.03,125.04 263.84,124.32 264.30,123.64 264.77,122.97 265.50,122.40 266.23,121.83 266.63,121.17 267.03,120.51 267.26,119.62 267.49,118.73 267.40,117.94 267.31,117.15 267.16,116.63 267.02,116.11 266.42,115.36 265.81,114.61 265.26,113.81 264.70,113.01 264.12,112.40 263.53,111.79 262.93,111.13 262.33,110.46 261.96,109.91 261.60,109.36 260.93,109.11 260.25,108.86 259.79,108.48 259.33,108.10 258.62,107.73 257.90,107.37 257.31,106.80 256.73,106.23 256.14,105.69 255.55,105.14 254.94,104.63 254.32,104.12 253.30,103.19 252.29,102.25 251.53,101.98 250.78,101.71 249.75,101.12 248.73,100.53 248.17,99.97 247.60,99.41 247.04,98.87 246.49,98.33 245.95,97.84 245.41,97.35 244.94,96.96 244.46,96.57 243.73,96.24 243.00,95.90 242.33,95.36 241.66,94.82 240.66,94.24 239.65,93.66 239.11,93.13 238.56,92.59 238.05,92.11 237.53,91.63 236.87,91.10 236.20,90.58 235.63,89.76 235.07,88.94 234.47,88.35 233.87,87.76 233.20,87.17 232.53,86.57 231.68,85.96 230.83,85.35 229.61,84.64 228.38,83.93 227.63,83.52 226.88,83.12 226.13,82.44 225.38,81.77 224.45,80.98 223.51,80.19 222.94,79.75 222.38,79.30 221.83,78.97 221.28,78.64 220.13,78.37 218.98,78.11 218.47,77.71 217.96,77.31 217.30,77.10 216.63,76.89 216.10,76.84 215.56,76.80 214.77,77.50 213.97,78.21 213.60,78.67 213.23,79.13 212.78,79.86 212.34,80.59 211.81,80.92 211.29,81.25 211.19,81.85 211.09,82.44 210.73,83.18 210.38,83.92 209.84,84.50 209.30,85.07 208.83,85.60 208.35,86.14 207.99,86.58 207.63,87.02 207.28,87.75 206.93,88.47 206.40,89.05 205.87,89.62 205.40,90.17 204.94,90.71 204.59,91.19 204.24,91.67 203.99,92.47 203.75,93.28 203.05,94.54 202.35,95.81 202.34,96.36 202.33,96.90 202.30,97.51 202.28,98.11 202.25,98.75 202.22,99.40 202.19,100.13 202.16,100.87 202.16,101.85 202.16,102.83 202.07,103.55 201.98,104.27 201.46,105.49 200.94,106.71 200.99,107.60 201.04,108.48 201.03,109.20 201.02,109.91 201.08,110.79 201.13,111.66 201.21,112.25 201.28,112.84 201.61,113.76 201.94,114.68 201.95,115.74 201.97,116.80 201.95,117.72 201.93,118.64 201.95,120.03 201.97,121.41 201.95,122.36 201.94,123.30 201.95,124.75 201.96,126.20 201.96,127.29 201.97,128.39 201.92,129.43 201.87,130.47 201.69,131.29 201.51,132.11 201.23,133.04 200.96,133.97 200.95,134.89 200.95,135.81 200.89,136.44 200.83,137.06 200.75,137.76 200.67,138.45 200.55,139.29 200.43,140.13 200.24,141.35 200.06,142.57 199.67,143.71 199.28,144.85 199.09,146.16 198.90,147.47 198.48,148.89 198.06,150.30 197.81,151.45 197.56,152.59 197.06,153.49 196.56,154.38 196.12,155.83 195.67,157.28 195.34,158.48 195.00,159.69 194.33,160.75 193.66,161.81 192.78,163.63 191.91,165.45 190.68,167.32 189.45,169.20 188.06,171.32 186.68,173.45 185.74,174.55 184.79,175.66 183.51,176.57 182.23,177.48 181.44,178.09 180.65,178.70 179.70,179.31 178.76,179.92 177.97,180.68 177.18,181.44 176.08,182.46 174.97,183.47 173.87,184.32 172.77,185.17 171.98,185.41 171.19,185.66 170.03,186.35 168.88,187.05 167.57,187.98 166.27,188.92 164.87,189.49 163.48,190.07 161.80,190.62 160.13,191.17 158.50,191.69 156.87,192.20 155.34,192.64 153.81,193.08 152.69,193.27 151.58,193.47 150.27,193.98 148.97,194.49 147.45,194.86 145.92,195.23 144.88,195.25 143.84,195.28 142.95,195.26 142.07,195.24 140.69,195.23 139.32,195.22 138.52,195.05 137.72,194.87 136.98,194.62 136.24,194.37 135.64,194.34 135.05,194.31 134.40,194.28 133.74,194.24 133.00,194.18 132.25,194.12 131.18,194.02 130.11,193.92 129.34,193.58 128.57,193.25 127.89,192.75 127.22,192.25 126.18,191.69 125.14,191.13 124.21,190.31 123.28,189.49 122.51,188.50 121.75,187.52 121.33,186.66 120.91,185.80 120.45,185.29 119.99,184.78 119.87,184.07 119.75,183.35 119.63,182.48 119.51,181.61 118.95,180.47 118.38,179.33 117.79,178.22 117.20,177.11 116.66,176.51 116.12,175.91 115.52,174.77 114.93,173.64 114.39,173.01 113.86,172.38 113.40,171.60 112.94,170.81 112.85,170.29 112.76,169.76 112.53,169.20 112.29,168.64 111.38,167.66 110.46,166.68 110.05,166.07 109.63,165.47 108.98,164.99 108.34,164.52 107.83,163.84 107.33,163.15 106.62,162.76 105.92,162.38 105.43,161.49 104.93,160.60 104.31,160.24 103.68,159.88 103.04,158.72 102.40,157.57 101.82,156.99 101.24,156.41 100.61,155.80 99.98,155.19 99.25,154.55 98.52,153.91 97.29,152.92 96.06,151.92 95.39,151.78 94.72,151.63 93.98,151.26 93.24,150.89 92.66,150.34 92.07,149.78 91.51,149.26 90.94,148.73 90.39,148.27 89.84,147.80 89.36,147.45 88.87,147.10 88.05,146.81 87.23,146.53 86.19,145.98 85.15,145.43 84.29,144.66 83.43,143.90 82.77,143.20 82.12,142.50 81.54,141.87 80.97,141.24 80.28,140.47 79.59,139.70 79.18,139.37 78.76,139.03 78.05,138.70 77.34,138.38 76.81,137.89 76.27,137.41 75.84,137.05 75.40,136.68 74.71,136.41 74.01,136.13 73.50,135.72 72.99,135.30 72.23,134.98 71.47,134.66 70.65,134.13 69.83,133.60 68.47,133.00 67.11,132.41 66.50,131.86 65.89,131.32 65.18,130.83 64.46,130.34 63.28,129.88 62.10,129.42 61.11,128.50 60.12,127.57 59.35,126.93 58.58,126.29 57.43,125.49 56.29,124.69 55.25,123.67 54.20,122.64 52.53,121.01 50.85,119.38 49.17,117.81 47.50,116.23 46.02,114.24 44.55,112.25 43.23,111.26 41.90,110.27 40.41,108.77 38.92,107.27 36.95,105.29 34.98,103.31 33.45,101.74 31.92,100.18 29.84,98.03 27.77,95.88 26.77,94.69 25.77,93.50 25.05,92.37 24.32,91.24 23.31,90.01 22.30,88.77 21.55,87.53 20.80,86.29 19.75,84.81 18.69,83.34 17.80,81.46 16.92,79.59 16.43,77.61 15.94,75.64 15.57,73.35 15.20,71.05 15.13,69.62 15.05,68.20 14.89,66.22 14.73,64.24 15.10,63.05 15.46,61.85 15.59,60.41 15.71,58.98 16.02,57.29 16.32,55.60 16.30,54.55 16.28,53.51 16.27,51.80 16.25,50.09 16.33,49.13 16.41,48.17 16.98,47.38 17.56,46.60 17.57,45.81 17.58,45.01 17.56,43.76 17.55,42.51 17.52,41.11 17.50,39.71 17.45,37.98 17.41,36.24 17.33,35.26 17.25,34.27 17.11,33.42 16.96,32.57 16.53,31.23 16.10,29.90 15.98,29.17 15.85,28.44 15.40,27.36 14.94,26.28 14.73,25.41 14.52,24.53 13.96,23.23 13.40,21.92 12.77,21.00 12.14,20.08 11.48,18.77 10.82,17.46 10.04,15.93 9.26,14.40 8.26,12.41 7.27,10.42 6.33,9.40 5.39,8.39 4.76,7.55 4.14,6.70 3.50,5.62 2.87,4.53 2.15,3.52 1.43,2.50 0.44,1.52 -0.55,0.55 -0.61,0.48 -0.67,0.40 -0.71,0.32 -0.75,0.23 -0.76,0.14 -0.78,0.04 -0.78,-0.04 -0.77,-0.14 -0.74,-0.23 -0.71,-0.32 -0.66,-0.40 -0.62,-0.48 -0.55,-0.55 -0.48,-0.62 -0.40,-0.66 -0.32,-0.71 -0.23,-0.74 -0.14,-0.77 -0.04,-0.78 0.04,-0.78 0.14,-0.76 0.23,-0.75 0.32,-0.71 0.40,-0.67 0.48,-0.61 0.55,-0.55 0.55,-0.55 L 0.55,-0.55 Z"/></g></svg>